<svg xmlns="http://www.w3.org/2000/svg" viewBox="0 0 35.34 34.62"><defs><style>.cls-1{fill:none;stroke:#e2e2e2;stroke-linecap:round;stroke-linejoin:round;stroke-width:2px;}</style></defs><g id="Capa_2" data-name="Capa 2"><g id="Layer_3" data-name="Layer 3"><path class="cls-1" d="M16.79,7.19,1.38,18a.84.84,0,0,0-.29,1.07L3.2,22.87a.48.48,0,0,0,.43.28A.79.79,0,0,0,4.19,23a3.53,3.53,0,0,1,2.5-.66A2.62,2.62,0,0,1,8.62,23.7a3.35,3.35,0,0,1,.23,2.54,4.11,4.11,0,0,1-1.62,2.25.81.81,0,0,0-.34.5.72.72,0,0,0,.05.56l2,3.79a.51.51,0,0,0,.43.28.94.94,0,0,0,.56-.14L25.35,22.64Z"/><path class="cls-1" d="M25.93,1a.77.77,0,0,0-.56.14L18.51,6l8.58,15.47L34,16.62a.86.86,0,0,0,.19-.19.77.77,0,0,0,.11-.87l-2.12-3.8a.49.49,0,0,0-.43-.28.75.75,0,0,0-.55.14,3.57,3.57,0,0,1-2.51.66,2.58,2.58,0,0,1-1.92-1.35,3.33,3.33,0,0,1-.24-2.53A4,4,0,0,1,28.1,6.15a.84.84,0,0,0,.29-1.07L26.28,1.29c0-.15-.18-.24-.35-.28Z"/></g></g></svg>