<svg xmlns="http://www.w3.org/2000/svg" viewBox="0 0 106 134.3"><g id="Capa_2" data-name="Capa 2"><g id="Capa_1-2" data-name="Capa 1"><path d="M1.86,134.3A3.6,3.6,0,0,1,0,130.73c0-24.55,0-49.1,0-73.65,0-9.71,4.33-17,12.82-21.71a1.74,1.74,0,0,0,.77-1.27c0-6.42,0-12.84,0-19.27a1.77,1.77,0,0,0-.05-.77c-1.73-3.18-.75-6.6-.85-9.91C12.69,2,14.26.86,16,0H31.24c2.6,1.11,3.55,3.12,3.36,5.86-.1,1.57,0,3.15,0,4.72a4.43,4.43,0,0,1-.27,2.05c-.87,1.47-.69,3-.7,4.58,0,5.55,0,11.1,0,16.65a1.57,1.57,0,0,0,.94,1.61C42.68,40,47,47,47.21,56.34c.15,6.29,0,12.59,0,18.88,0,1.91-1,3.06-2.67,3S42,77.1,42,75.26c0-2.62,0-5.24,0-7.86V66.05H5.36v42.84H42v-6.5c0-1,0-2.1,0-3.15a2.61,2.61,0,0,1,5.22,0c0,.3,0,.61,0,.92,0,10.18,0,20.36,0,30.55a3.59,3.59,0,0,1-1.87,3.57ZM5.37,60.63h36.8a63.21,63.21,0,0,0-.62-7.92A17.75,17.75,0,0,0,30.49,39.37a3,3,0,0,1-2.14-3.2c0-.76,0-1.53,0-2.26H18.91a12,12,0,0,0,0,1.35c.3,2.3-.67,3.61-2.86,4.45a16.45,16.45,0,0,0-7,5.55C5.54,49.8,4.9,55,5.37,60.63ZM42,114.36H5.35V129H42ZM19,28.5h9.28V15.81H19ZM18,5.28v5.13H29.23V5.28Z"/><path d="M69.54,134.3c-.61-.65-1.48-1.2-1.76-2-.62-1.7.72-3.25,2.66-3.28,2.62,0,5.24,0,7.86,0h1.37c0-.53.07-1,.07-1.38q0-15.47,0-30.94a1.89,1.89,0,0,0-1-1.86A42,42,0,0,1,66,35.45a3.91,3.91,0,0,1,3.58-1.9q12.78.08,25.56,0a3.83,3.83,0,0,1,3.5,1.82,42,42,0,0,1-12.37,59.3A2.42,2.42,0,0,0,85,97.05c.05,10.14,0,20.28,0,30.41v1.59h7.38c.61,0,1.22,0,1.83,0A2.7,2.7,0,0,1,97,131a2.67,2.67,0,0,1-1.33,3c-.14.09-.27.2-.41.3ZM64.33,64.45h36a4.58,4.58,0,0,0,.15-.46,36.76,36.76,0,0,0-5.12-24.13,2,2,0,0,0-2-1.06c-7.3,0-14.6.05-21.9,0a2.19,2.19,0,0,0-2.15,1.26A36.9,36.9,0,0,0,64.33,64.45Zm1.31,5.38a6.33,6.33,0,0,0,.17.79,36.57,36.57,0,0,0,15.77,19.9c.74.46,1.19.2,1.77-.16A36.45,36.45,0,0,0,98.14,72.69c.37-.91.66-1.85,1-2.86Z"/><path d="M23.64,79.46a8,8,0,0,1,12,1.93c2,3.4,1.54,9-4.23,11.53a8.06,8.06,0,0,1-2.64,7.5,7.7,7.7,0,0,1-5.68,1.91c-4.57-.24-7.44-3.92-7.29-9.37-5.2-3.15-6.71-7.6-4-11.81C13.91,77.77,19,75.93,23.64,79.46Zm0,17.62a2.58,2.58,0,0,0,2.63-2.54,2.62,2.62,0,1,0-5.23,0A2.57,2.57,0,0,0,23.62,97.08ZM21,85.34a2.62,2.62,0,0,0-5.23,0,2.62,2.62,0,1,0,5.23,0Zm10.49.1A2.61,2.61,0,1,0,28.87,88,2.61,2.61,0,0,0,31.49,85.44Z"/><path d="M44.59,90.06a2.59,2.59,0,1,1,2.64-2.52A2.59,2.59,0,0,1,44.59,90.06Z"/></g></g></svg>