<svg xmlns="http://www.w3.org/2000/svg" viewBox="0 0 99.51 83.43"><defs><style>.cls-1{fill:#696969;}</style></defs><g id="Capa_2" data-name="Capa 2"><g id="Capa_1-2" data-name="Capa 1"><path class="cls-1" d="M71.54,83.42A116.85,116.85,0,0,0,90.23,82a1.23,1.23,0,0,0,1-1.06l.48-4.13.69-.09a1.21,1.21,0,0,0,1-1.16l.41-11.34c.81-.12,1.2-.21,1.24-.22A1.22,1.22,0,0,0,96,62.9l1.06-26.52A1.2,1.2,0,0,0,96,35.13c-.05,0-.45-.06-1.21-.13l.42-11.36c1.84.16,2.89.27,2.94.28a1.24,1.24,0,0,0,1-.32,1.2,1.2,0,0,0,.38-.94l-.41-9a1.22,1.22,0,0,0-1-1.15s-.81-.14-2.19-.33L94.12,3a1.21,1.21,0,0,0-.83-.93c-2.24-.69-21.92-4.28-43.23,0a1.22,1.22,0,0,0-1,1L47.4,11.72,45.22,12a1.22,1.22,0,0,0-1.07,1.15l-.43,9.55a1.2,1.2,0,0,0,.38.94,1.25,1.25,0,0,0,.84.33h.14c1-.11,2-.22,2.93-.31l.4,11.4-1.25.11A1.24,1.24,0,0,0,46,36.39L47.1,62.9a1.23,1.23,0,0,0,1.11,1.17l1.2.11L49.8,75.6a1.22,1.22,0,0,0,1.08,1.17l.65.07L52,81a1.22,1.22,0,0,0,1,1.07A122.82,122.82,0,0,0,71.54,83.42ZM93.37,11.81a211,211,0,0,0-43.43-.35l1.4-7.19c19.06-3.63,36.48-1,40.54,0ZM97,21.36c-5.83-.55-28.72-2.39-50.8,0l.32-7.08a202.59,202.59,0,0,1,50.18.46ZM92.37,34.79c-2.16-.16-5.33-.35-9.64-.49a23.17,23.17,0,0,0-24.1,0c-3.38.11-5.2.28-7.68.52h-.12l-.39-11.4a276.52,276.52,0,0,1,42.34.06Zm2.23,2.63-1,24.41a98.91,98.91,0,0,1-11.35.93,1.19,1.19,0,0,0-.61.19,20.7,20.7,0,0,1-22.25-.15,1.26,1.26,0,0,0-.62-.2c-2.61-.12-4-.28-5.78-.48-1-.12-2.06-.24-3.52-.38l-1-24.29,2.66-.25c2.61-.25,4.34-.41,7.85-.52a1.25,1.25,0,0,0,.62-.19,20.68,20.68,0,0,1,22,0,1.25,1.25,0,0,0,.62.19C88.81,36.93,92.81,37.25,94.6,37.42ZM91.39,64.58,91,74.48a180.83,180.83,0,0,1-38.84,0l-.34-10,.88.1c1.74.2,3.13.37,5.61.49a23.19,23.19,0,0,0,24.34.16C86.62,65,89.44,64.79,91.39,64.58ZM54.33,79.78,54,77.1c6.46.62,12.51.84,17.81.84,7.77,0,13.91-.46,17.4-.81l-.32,2.66A125.3,125.3,0,0,1,54.33,79.78Z"/><path class="cls-1" d="M.33,32.93,0,40.24a1.19,1.19,0,0,0,.39.94,1.16,1.16,0,0,0,.83.33h.14l2-.21L3.57,47l-.67.06a1.22,1.22,0,0,0-1.12,1.26l.81,20.31A1.22,1.22,0,0,0,3.7,69.81l.67.07.29,7.28a1.21,1.21,0,0,0,1.08,1.16,2.48,2.48,0,0,0,.27,0l.35,3a1.21,1.21,0,0,0,1,1.06,94.48,94.48,0,0,0,14.31,1.07A87.81,87.81,0,0,0,36,82.36a1.24,1.24,0,0,0,1-1.06l.34-2.94.31,0a1.21,1.21,0,0,0,1-1.15l.3-7.24c.48-.08.72-.14.75-.15a1.2,1.2,0,0,0,.93-1.13l.81-20.31a1.21,1.21,0,0,0-1.06-1.26L39.69,47l.29-5.7,2,.19a1.21,1.21,0,0,0,1.35-1.26L43,33.31a1.21,1.21,0,0,0-1-1.14s-.55-.1-1.48-.23l-1.33-6.8a1.24,1.24,0,0,0-.84-.93c-1.72-.53-16.87-3.3-33.24,0a1.22,1.22,0,0,0-1,1L2.87,31.61l-1.47.16A1.22,1.22,0,0,0,.33,32.93ZM38,31.62A161.16,161.16,0,0,0,5.4,31.36l1-4.94a85.74,85.74,0,0,1,30.56,0Zm-29.46,47c4.83.45,9.35.62,13.31.62,5.71,0,10.28-.33,13-.6l-.17,1.47a95.6,95.6,0,0,1-26,0ZM6.82,70.13l.34,0c1.32.16,2.38.28,4.24.37a18,18,0,0,0,18.82.13c2.76-.12,4.8-.27,6.27-.43L36.25,76a139.25,139.25,0,0,1-29.2,0ZM4.26,49.4,6,49.24c2-.19,3.3-.32,6-.4a1.16,1.16,0,0,0,.62-.19,15.58,15.58,0,0,1,16.57,0,1.26,1.26,0,0,0,.62.2c4.67.15,7.65.37,9.12.51l-.72,18.19a80.16,80.16,0,0,1-8.43.66,1.2,1.2,0,0,0-.61.2,15.59,15.59,0,0,1-16.73-.11,1.26,1.26,0,0,0-.62-.2c-2-.1-3.05-.22-4.4-.37L5,67.49Zm1.47-8.33a213.21,213.21,0,0,1,31.82,0l-.29,5.69c-1.63-.12-3.95-.26-7-.36a18,18,0,0,0-18.63,0c-2.45.08-3.83.21-5.61.38ZM2.5,38.93l.22-4.86a155.58,155.58,0,0,1,37.88.35L40.8,39C35.89,38.5,18.94,37.2,2.5,38.93Z"/></g></g></svg>