<svg xmlns="http://www.w3.org/2000/svg" viewBox="0 0 111.03 111.31"><defs><style>.cls-1{fill:#696969;}</style></defs><g id="Capa_2" data-name="Capa 2"><g id="Capa_1-2" data-name="Capa 1"><path class="cls-1" d="M65.52,111.31H.07c0-.25-.07-.5-.07-.75V76.22c0-.28.06-.56.1-1H12c-.68-.71-1.11-1.23-1.61-1.66-1.68-1.44-3.35-2.88-5.08-4.26a2.66,2.66,0,0,1-1.1-1.88A57.51,57.51,0,0,0,.48,53.25a3.1,3.1,0,0,1,0-1.93c.89-2.9,2-5.74,2.77-8.66.54-1.95.72-4,1.11-6A2.17,2.17,0,0,1,5,35.52a60.43,60.43,0,0,0,11-11,2,2,0,0,1,1.15-.65A56.88,56.88,0,0,0,31.42,20.1a3.33,3.33,0,0,1,2.59,0c3,1,6,2,9.09,2.84,1.66.47,3.42.6,5.11,1a2.86,2.86,0,0,1,1.42.83c1.53,1.74,3,3.54,4.49,5.3.41.47.9.87,1.57,1.51V30c0-6.41,0-12.82,0-19.23a4.38,4.38,0,0,1,.52-2c1.4-2.62,2.88-5.19,4.32-7.78A8.33,8.33,0,0,0,61,0h44.79c1.63,3,3.27,6,4.87,9a3.46,3.46,0,0,1,.4,1.54q0,38.52,0,77.06a2.89,2.89,0,0,1-.29,1.34c-1.54,2.87-3.12,5.72-4.71,8.56-.14.25-.44.58-.67.59-2.34,0-4.69,0-7.08,0V94.81c1.63,0,3.19,0,4.74,0,.3,0,.75-.06.86-.25,1.15-2,2.25-4,3.41-6.1H65.48v6.36H88.31v3.3H65.42c0,1.57,0,3,0,4.52C65.45,105.53,65.49,108.42,65.52,111.31ZM107.32,9.75c-1.11-2-2.12-3.77-3-5.57a1.52,1.52,0,0,0-1.59-.94c-12.29,0-24.57.08-36.86,0-2.13,0-3.4.49-4.18,2.5a36.33,36.33,0,0,1-2.2,4.08H98.11V13H85.87c-.56,0-.93,0-1,.76a17.33,17.33,0,0,1-4.23,9.48c-1.43,1.72-3,3.36-4.32,5.16a14.12,14.12,0,0,0,0,16.46c1.37,1.83,2.94,3.49,4.41,5.24a17.56,17.56,0,0,1,.12,23c-1.43,1.74-3,3.38-4.36,5.14A11.87,11.87,0,0,0,73.86,85h34v-24c-8.81,2.32-15.21.5-19.58-5.53a16.23,16.23,0,0,1-.53-18.38A16,16,0,0,1,95.11,31a16.48,16.48,0,0,1,12.75,0V13h-6.34V9.75ZM32.68,75.28c5.18,0,10.36,0,15.54,0,.43,0,1.05-.09,1.25-.37,2.23-3,5.22-5.21,8-7.63a2.08,2.08,0,0,0,.63-1.18,49.72,49.72,0,0,1,3.42-12.74,2.56,2.56,0,0,0,0-2.18,51.29,51.29,0,0,1-3.38-12.53,2.58,2.58,0,0,0-.85-1.51A53.5,53.5,0,0,1,48,27.86a3,3,0,0,0-1.77-1A54,54,0,0,1,33.47,23.4a1.94,1.94,0,0,0-1.34,0,56.5,56.5,0,0,1-13.27,3.57,2.11,2.11,0,0,0-1.23.72,53.39,53.39,0,0,1-9.49,9.51,2.45,2.45,0,0,0-.83,1.41,53,53,0,0,1-3.47,13,2.24,2.24,0,0,0,0,1.53A53.45,53.45,0,0,1,7.32,66a2.58,2.58,0,0,0,.84,1.41c2.57,2.28,5.42,4.27,7.43,7.12a1.79,1.79,0,0,0,1.66.76C22.39,75.27,27.54,75.28,32.68,75.28Zm29.4,3.33H3.35v3.15H42.41V85H3.33v16.53H62.07V85H45.82V81.73H62.08ZM65.44,85h5.11c.31-4.74,2.69-8.38,5.79-11.67.71-.77,1.4-1.57,2.06-2.38a14.27,14.27,0,0,0-.11-18.72c-1.28-1.53-2.65-3-3.9-4.53-3.94-4.85-4.75-10.35-3.19-16.27.77-2.94,2.58-5.3,4.54-7.57a62,62,0,0,0,4-5,10.8,10.8,0,0,0,1.9-5.79H59a3.34,3.34,0,0,0-.06.41c0,6.7,0,13.4,0,20.11,0,.41.4.84.68,1.22.46.65,1.31,1.22,1.41,1.91A63.27,63.27,0,0,0,65,51.37a2.65,2.65,0,0,1,0,1.84,59.87,59.87,0,0,0-3.87,14.53,2.55,2.55,0,0,1-.84,1.42c-1.76,1.55-3.59,3-5.38,4.57a19.63,19.63,0,0,0-1.45,1.55h12Zm42.5-38.91c0-3.51,0-7,0-10.54a1.54,1.54,0,0,0-.72-1.22A20.43,20.43,0,0,0,102.53,33a12.8,12.8,0,0,0-13,7.6,13.06,13.06,0,0,0,17.56,17.09,1.22,1.22,0,0,0,.83-1.3C107.91,53,107.94,49.55,107.94,46.11ZM62.11,105H3.32v3H62.11Z"/><path class="cls-1" d="M91.72,94.85h3.11V98H91.72Z"/><path class="cls-1" d="M23.69,69.21l-1.41,2.65C15.67,68.9,9,60,10.53,48.9a22.42,22.42,0,0,1,43.89-2.3C57,56.78,52.1,67.74,42.92,72.09l-1.44-2.8c6.21-3.57,9.86-8.8,10.32-16a18.28,18.28,0,0,0-5.42-14.5,19.15,19.15,0,0,0-27.75.39C10.63,47.77,12.05,63.1,23.69,69.21Z"/><path class="cls-1" d="M45.75,52.36a13.05,13.05,0,1,1-13.07-13A13.07,13.07,0,0,1,45.75,52.36Zm-3.26,0a9.79,9.79,0,0,0-19.58,0,9.79,9.79,0,1,0,19.58,0Z"/><path class="cls-1" d="M9.77,91.55H6.68V88.41H9.77Z"/><path class="cls-1" d="M16.32,88.44v3.12H13.2V88.44Z"/><path class="cls-1" d="M65.25,19.49H62.12V16.34h3.13Z"/><path class="cls-1" d="M71.78,16.35v3.12H68.67V16.35Z"/></g></g></svg>