<svg xmlns="http://www.w3.org/2000/svg" viewBox="0 0 94.38 120.14"><defs><style>.cls-1{fill:none;stroke:#1d1d1b;stroke-miterlimit:10;stroke-width:2px;}</style></defs><g id="Capa_2" data-name="Capa 2"><g id="Layer_3" data-name="Layer 3"><path class="cls-1" d="M83.64,64.53l9-5.06a1.67,1.67,0,0,0,.52-2.34L87,48.83A1.56,1.56,0,0,1,87,47l6-8.43a1.51,1.51,0,0,0-.52-2.2l-9.08-4.8a1.42,1.42,0,0,1-.78-1.69l1.69-10.11A1.55,1.55,0,0,0,82.86,18l-10.25-.39a1.51,1.51,0,0,1-1.42-1.17L68.33,6.55a1.54,1.54,0,0,0-2.07-1l-9.47,4A1.61,1.61,0,0,1,55,9.14L48.1,1.49a1.65,1.65,0,0,0-2.34,0L39,9.27a1.56,1.56,0,0,1-1.82.39L27.73,5.77a1.5,1.5,0,0,0-2.07,1l-2.73,10A1.69,1.69,0,0,1,21.51,18l-10.25.65a1.55,1.55,0,0,0-1.43,1.82l1.82,10.11a1.56,1.56,0,0,1-.78,1.69L1.79,37a1.65,1.65,0,0,0-.52,2.33l6.1,8.3a1.56,1.56,0,0,1,0,1.82l-6,8.43a1.51,1.51,0,0,0,.52,2.2L11,64.91a1.42,1.42,0,0,1,.78,1.69L10.09,76.72a1.54,1.54,0,0,0,1.43,1.81l10.24.39a1.52,1.52,0,0,1,1.43,1.17L26,90a1.55,1.55,0,0,0,2.08,1l9.47-4a1.59,1.59,0,0,1,1.81.39L46.28,95a1.65,1.65,0,0,0,2.33,0l6.75-7.79a1.55,1.55,0,0,1,1.81-.39l9.47,3.89a1.51,1.51,0,0,0,2.08-1l2.72-10a1.69,1.69,0,0,1,1.43-1.17l10.25-.65a1.54,1.54,0,0,0,1.42-1.81L82.73,66a1.49,1.49,0,0,1,.91-1.42ZM47.19,76.2A27.89,27.89,0,1,1,75.08,48.31,27.93,27.93,0,0,1,47.19,76.2ZM69.72,86l7.55,25.92a1.13,1.13,0,0,1-1.43,1.42l-9.21-2.72a1,1,0,0,0-1.17.39l-6,7.65a1.18,1.18,0,0,1-2.07-.39h0L50.33,93M44.44,93l-8.35,25.4a1.12,1.12,0,0,1-1.94.39l-6-7.66A1.06,1.06,0,0,0,27,110.7l-9.21,2.72A1.18,1.18,0,0,1,16.25,112h0l8.83-25.37M65,45.2l-8,6.74,2.46,10.25A2.27,2.27,0,0,1,56,64.66l-8.82-5.58-8.95,5.57a2.28,2.28,0,0,1-3.37-2.46l2.46-10.25-8-6.74a2.21,2.21,0,0,1,1.3-3.89l10.5-.78,4-9.73a2.26,2.26,0,0,1,4.15,0l4,9.73,10.51.78A2.18,2.18,0,0,1,65,45.2Z"/></g></g></svg>