<svg xmlns="http://www.w3.org/2000/svg" viewBox="0 0 139.83 121.19"><defs><style>.cls-1{fill:none;stroke:#1d1d1b;stroke-miterlimit:10;stroke-width:2px;}</style></defs><g id="Capa_2" data-name="Capa 2"><g id="Layer_3" data-name="Layer 3"><polyline class="cls-1" points="42.75 47.37 18.22 47.37 18.22 30.75"/><line class="cls-1" x1="36.62" y1="65.57" x2="7.73" y2="65.57"/><circle class="cls-1" cx="18.22" cy="27.38" r="3.36"/><circle class="cls-1" cx="63.58" cy="60.69" r="3.36"/><circle class="cls-1" cx="69.62" cy="4.36" r="3.36"/><circle class="cls-1" cx="4.36" cy="65.57" r="3.36"/><polyline class="cls-1" points="97.07 47.37 121.61 47.37 121.61 30.75"/><line class="cls-1" x1="103.21" y1="65.57" x2="132.1" y2="65.57"/><circle class="cls-1" cx="121.61" cy="27.38" r="3.36"/><circle class="cls-1" cx="135.46" cy="65.57" r="3.36"/><polyline class="cls-1" points="97.07 83.78 121.61 83.78 121.61 100.4"/><circle class="cls-1" cx="121.61" cy="103.77" r="3.36"/><polyline class="cls-1" points="42.75 83.78 18.22 83.78 18.22 100.4"/><circle class="cls-1" cx="18.22" cy="103.77" r="3.36"/><line class="cls-1" x1="69.62" y1="31.74" x2="69.62" y2="7.99"/><path class="cls-1" d="M98.11,65.57A28.5,28.5,0,1,0,53.45,89,12.62,12.62,0,0,1,59,99.38v4.39H79.76v-4a12.25,12.25,0,0,1,5.42-10.28A28.45,28.45,0,0,0,98.11,65.57Z"/><path class="cls-1" d="M72.73,116.83a3.37,3.37,0,0,1-6.73,0"/><rect class="cls-1" x="58.98" y="103.77" width="20.78" height="13.06"/><line class="cls-1" x1="58.98" y1="116.83" x2="79.76" y2="112.37"/><line class="cls-1" x1="58.98" y1="113.04" x2="79.76" y2="108.59"/><line class="cls-1" x1="58.98" y1="109.26" x2="79.76" y2="104.8"/><line class="cls-1" x1="63.58" y1="103.63" x2="63.58" y2="64.06"/><circle class="cls-1" cx="75.26" cy="60.69" r="3.36"/><line class="cls-1" x1="75.26" y1="103.63" x2="75.26" y2="64.06"/></g></g></svg>