<svg xmlns="http://www.w3.org/2000/svg" viewBox="0 0 156.77 118.39"><defs><style>.cls-1{fill:none;}.cls-1,.cls-2{stroke:#1d1d1b;stroke-miterlimit:10;stroke-width:2px;}.cls-2{fill:#fff;}</style></defs><g id="Capa_2" data-name="Capa 2"><g id="Layer_3" data-name="Layer 3"><circle class="cls-1" cx="35.73" cy="10.95" r="9.95"/><path class="cls-1" d="M35.73,1H145.81a10,10,0,1,1,0,19.91H35.73"/><circle class="cls-1" cx="35.73" cy="34.44" r="9.95"/><path class="cls-1" d="M35.73,24.48H145.81a10,10,0,1,1,0,19.91H35.73"/><rect class="cls-2" x="59.21" y="24.48" width="79.63" height="92.9"/><rect class="cls-2" x="66.87" y="30.1" width="64.32" height="42.85"/><polyline class="cls-1" points="66.87 66.34 90.86 46.15 103.11 66.34 117.66 37.22 131.19 61.11"/><line class="cls-1" x1="66.87" y1="78.59" x2="131.19" y2="78.59"/><line class="cls-1" x1="66.87" y1="85.99" x2="131.19" y2="85.99"/><line class="cls-1" x1="66.87" y1="93.39" x2="131.19" y2="93.39"/><line class="cls-1" x1="66.87" y1="100.8" x2="131.19" y2="100.8"/><line class="cls-1" x1="35.73" y1="1" x2="8.68" y2="1"/><line class="cls-1" x1="19.57" y1="5.76" x2="31.82" y2="5.76"/><line class="cls-1" x1="25.69" y1="10.19" y2="10.19"/><line class="cls-1" x1="18.55" y1="14.27" x2="23.14" y2="14.27"/></g></g></svg>