<svg xmlns="http://www.w3.org/2000/svg" viewBox="0 0 160.9 114.2"><defs><style>.cls-1{fill:none;stroke-width:2px;}.cls-1,.cls-3,.cls-4{stroke:#1d1d1b;}.cls-1,.cls-3{stroke-miterlimit:10;}.cls-2{fill:#1d1d1b;}.cls-3,.cls-4{fill:#fff;stroke-width:1.51px;}.cls-4{stroke-linecap:round;stroke-linejoin:round;}</style></defs><g id="Capa_2" data-name="Capa 2"><g id="Layer_3" data-name="Layer 3"><rect class="cls-1" x="1" y="9.4" width="130.74" height="103.8" rx="8.61"/><line class="cls-1" x1="1" y1="29.21" x2="131.74" y2="29.21"/><path class="cls-1" d="M52.63,1H80.1a2.64,2.64,0,0,1,2.64,2.64V9.4a0,0,0,0,1,0,0H50a0,0,0,0,1,0,0V3.64A2.64,2.64,0,0,1,52.63,1Z"/><circle class="cls-2" cx="11.3" cy="37.13" r="0.55"/><circle class="cls-2" cx="21.18" cy="37.13" r="0.55"/><circle class="cls-2" cx="31.07" cy="37.13" r="0.55"/><circle class="cls-2" cx="40.95" cy="37.13" r="0.55"/><circle class="cls-2" cx="50.84" cy="37.13" r="0.55"/><circle class="cls-2" cx="60.72" cy="37.13" r="0.55"/><circle class="cls-2" cx="70.61" cy="37.13" r="0.55"/><circle class="cls-2" cx="80.49" cy="37.13" r="0.55"/><circle class="cls-2" cx="90.38" cy="37.13" r="0.55"/><circle class="cls-2" cx="100.26" cy="37.13" r="0.55"/><circle class="cls-2" cx="110.14" cy="37.13" r="0.55"/><circle class="cls-2" cx="120.03" cy="37.13" r="0.55"/><circle class="cls-2" cx="11.3" cy="46.37" r="0.55"/><circle class="cls-2" cx="21.18" cy="46.37" r="0.55"/><circle class="cls-2" cx="31.07" cy="46.37" r="0.55"/><circle class="cls-2" cx="40.95" cy="46.37" r="0.55"/><circle class="cls-2" cx="50.84" cy="46.37" r="0.55"/><circle class="cls-2" cx="60.72" cy="46.37" r="0.55"/><circle class="cls-2" cx="70.61" cy="46.37" r="0.55"/><circle class="cls-2" cx="80.49" cy="46.37" r="0.55"/><circle class="cls-2" cx="90.38" cy="46.37" r="0.55"/><circle class="cls-2" cx="100.26" cy="46.37" r="0.55"/><circle class="cls-2" cx="110.14" cy="46.37" r="0.55"/><circle class="cls-2" cx="120.03" cy="46.37" r="0.55"/><circle class="cls-2" cx="11.3" cy="55.62" r="0.55"/><circle class="cls-2" cx="21.18" cy="55.62" r="0.55"/><circle class="cls-2" cx="31.07" cy="55.62" r="0.55"/><circle class="cls-2" cx="40.95" cy="55.62" r="0.55"/><circle class="cls-2" cx="50.84" cy="55.62" r="0.55"/><circle class="cls-2" cx="60.72" cy="55.62" r="0.55"/><circle class="cls-2" cx="70.61" cy="55.62" r="0.55"/><circle class="cls-2" cx="80.49" cy="55.62" r="0.55"/><circle class="cls-2" cx="90.38" cy="55.62" r="0.55"/><circle class="cls-2" cx="100.26" cy="55.62" r="0.55"/><circle class="cls-2" cx="110.14" cy="55.62" r="0.55"/><circle class="cls-2" cx="120.03" cy="55.62" r="0.55"/><circle class="cls-2" cx="11.3" cy="64.86" r="0.55"/><circle class="cls-2" cx="21.18" cy="64.86" r="0.55"/><circle class="cls-2" cx="31.07" cy="64.86" r="0.55"/><circle class="cls-2" cx="40.95" cy="64.86" r="0.55"/><circle class="cls-2" cx="50.84" cy="64.86" r="0.55"/><circle class="cls-2" cx="60.72" cy="64.86" r="0.55"/><circle class="cls-2" cx="70.61" cy="64.86" r="0.55"/><circle class="cls-2" cx="80.49" cy="64.86" r="0.55"/><circle class="cls-2" cx="90.38" cy="64.86" r="0.55"/><circle class="cls-2" cx="100.26" cy="64.86" r="0.55"/><circle class="cls-2" cx="110.14" cy="64.86" r="0.55"/><circle class="cls-2" cx="120.03" cy="64.86" r="0.55"/><circle class="cls-2" cx="11.3" cy="74.11" r="0.55"/><circle class="cls-2" cx="21.18" cy="74.11" r="0.55"/><circle class="cls-2" cx="31.07" cy="74.11" r="0.55"/><circle class="cls-2" cx="40.95" cy="74.11" r="0.55"/><circle class="cls-2" cx="50.84" cy="74.11" r="0.55"/><circle class="cls-2" cx="60.72" cy="74.11" r="0.55"/><circle class="cls-2" cx="70.61" cy="74.11" r="0.55"/><circle class="cls-2" cx="80.49" cy="74.11" r="0.55"/><circle class="cls-2" cx="90.38" cy="74.11" r="0.55"/><circle class="cls-2" cx="100.26" cy="74.11" r="0.55"/><circle class="cls-2" cx="110.14" cy="74.11" r="0.55"/><circle class="cls-2" cx="120.03" cy="74.11" r="0.55"/><circle class="cls-2" cx="11.3" cy="83.35" r="0.55"/><circle class="cls-2" cx="21.18" cy="83.35" r="0.55"/><circle class="cls-2" cx="31.07" cy="83.35" r="0.55"/><circle class="cls-2" cx="40.95" cy="83.35" r="0.55"/><circle class="cls-2" cx="50.84" cy="83.35" r="0.55"/><circle class="cls-2" cx="60.72" cy="83.35" r="0.55"/><circle class="cls-2" cx="70.61" cy="83.35" r="0.55"/><circle class="cls-2" cx="80.49" cy="83.35" r="0.55"/><circle class="cls-2" cx="90.38" cy="83.35" r="0.55"/><circle class="cls-2" cx="100.26" cy="83.35" r="0.55"/><circle class="cls-2" cx="110.14" cy="83.35" r="0.55"/><circle class="cls-2" cx="120.03" cy="83.35" r="0.55"/><circle class="cls-2" cx="11.3" cy="92.59" r="0.55"/><circle class="cls-2" cx="21.18" cy="92.59" r="0.55"/><circle class="cls-2" cx="31.07" cy="92.59" r="0.55"/><circle class="cls-2" cx="40.95" cy="92.59" r="0.55"/><circle class="cls-2" cx="50.84" cy="92.59" r="0.55"/><circle class="cls-2" cx="60.72" cy="92.59" r="0.55"/><circle class="cls-2" cx="70.61" cy="92.59" r="0.55"/><circle class="cls-2" cx="80.49" cy="92.59" r="0.55"/><circle class="cls-2" cx="90.38" cy="92.59" r="0.55"/><circle class="cls-2" cx="100.26" cy="92.59" r="0.55"/><circle class="cls-2" cx="110.14" cy="92.59" r="0.55"/><circle class="cls-2" cx="120.03" cy="92.59" r="0.55"/><circle class="cls-2" cx="11.3" cy="101.84" r="0.55"/><circle class="cls-2" cx="21.18" cy="101.84" r="0.55"/><circle class="cls-2" cx="31.07" cy="101.84" r="0.55"/><circle class="cls-2" cx="40.95" cy="101.84" r="0.55"/><circle class="cls-2" cx="50.84" cy="101.84" r="0.55"/><circle class="cls-2" cx="60.72" cy="101.84" r="0.55"/><circle class="cls-2" cx="70.61" cy="101.84" r="0.55"/><circle class="cls-2" cx="80.49" cy="101.84" r="0.55"/><circle class="cls-2" cx="90.38" cy="101.84" r="0.55"/><circle class="cls-2" cx="100.26" cy="101.84" r="0.55"/><circle class="cls-2" cx="110.14" cy="101.84" r="0.55"/><circle class="cls-2" cx="120.03" cy="101.84" r="0.55"/><path class="cls-3" d="M159.74,19.68,109.59,67.39,104,68l.89-5.58L155,14.71a1.3,1.3,0,0,1,1.84,0l2.94,3.09A1.3,1.3,0,0,1,159.74,19.68Z"/><line class="cls-3" x1="104.86" y1="62.42" x2="109.41" y2="67.2"/><line class="cls-3" x1="125.24" y1="43.03" x2="129.97" y2="48.01"/><line class="cls-3" x1="109.81" y1="62.26" x2="124.4" y2="48.38"/><line class="cls-4" x1="103.97" y1="68" x2="103.33" y2="68.61"/></g></g></svg>