<svg xmlns="http://www.w3.org/2000/svg" viewBox="0 0 162 42.59">
    <defs>
        <style>.cls-1,.cls-2{fill:#fff;}.cls-2{fill:#5ba846;}</style>
    </defs>
    <g id="Capa_2" data-name="Capa 2">
        <g id="Capa_1-2" data-name="Capa 1">
            <g id="Capa_2-2" data-name="Capa 2">
                <g id="Capa_1-2-2" data-name="Capa 1-2">
                    <path class="cls-1"
                        d="M51,7.35a10.18,10.18,0,0,1,7.47,3.1,10.2,10.2,0,0,1,3.1,7.47l0,.65h-18a7.25,7.25,0,0,0,2.41,4.88,7.06,7.06,0,0,0,5.08,2,7.42,7.42,0,0,0,3.94-1.13,7.1,7.1,0,0,0,2.68-2.91l2.84,1.22a10.51,10.51,0,0,1-3.84,4.26A10.4,10.4,0,0,1,51,28.51a10.17,10.17,0,0,1-7.47-3.1,10.21,10.21,0,0,1-3.12-7.49,10.13,10.13,0,0,1,3.12-7.47A10.29,10.29,0,0,1,51,7.35Zm7.08,8.14a7.45,7.45,0,0,0-9.48-4.65,7.21,7.21,0,0,0-2,1,7.51,7.51,0,0,0-2.7,3.63Z" />
                    <path class="cls-1"
                        d="M65.9,3.91H69V7.58H72.6v3.08H69V21.5a3.64,3.64,0,0,0,3.63,3.68v3.08a6.71,6.71,0,0,1-6.7-6.71V3.91Z" />
                    <path class="cls-1"
                        d="M76.54,3.58a1.89,1.89,0,0,1-.61-1.45A2,2,0,0,1,76.54.65,2,2,0,0,1,78,.05a2,2,0,0,1,1.48.6,2,2,0,0,1,.6,1.48,2,2,0,0,1-.6,1.45A2,2,0,0,1,78,4.19,2,2,0,0,1,76.54,3.58Zm-.07,4h3.07V28.26H76.47Z" />
                    <path class="cls-1"
                        d="M116.19,28.23h-3.08V15.86A5.24,5.24,0,0,0,111.52,12a5.19,5.19,0,0,0-3.82-1.59,5.42,5.42,0,0,0-5.41,5.41V28.26H99.22V15.86a5.41,5.41,0,1,0-10.82,0v12.4H85.32V7.61H88.4V9.3a8.32,8.32,0,0,1,5.41-2,8.23,8.23,0,0,1,4,1,9.13,9.13,0,0,1,3,2.64,8.42,8.42,0,0,1,7-3.63,8.27,8.27,0,0,1,6,2.5,8.11,8.11,0,0,1,2.47,6Z" />
                    <path class="cls-1"
                        d="M131.13,7.35a10.21,10.21,0,0,1,7.47,3.1,10.22,10.22,0,0,1,3.09,7.47l0,.65h-18a7.2,7.2,0,0,0,2.4,4.88,7.15,7.15,0,0,0,5.09,2,7.42,7.42,0,0,0,3.93-1.13,7.23,7.23,0,0,0,2.7-2.89l2.85,1.23a10.65,10.65,0,0,1-3.82,4.25,10.38,10.38,0,0,1-5.64,1.64,10.12,10.12,0,0,1-7.47-3.1,10.17,10.17,0,0,1-3.12-7.49,10.11,10.11,0,0,1,3.12-7.47A10.06,10.06,0,0,1,131.13,7.35Zm7.05,8.14a7.45,7.45,0,0,0-9.48-4.65,7.21,7.21,0,0,0-2,1,7.51,7.51,0,0,0-2.7,3.63Z" />
                    <path class="cls-1"
                        d="M161.21,7.58l-7.08,10.09,7.43,10.56h-3.77l-5.55-7.88-5.55,7.91h-3.77l7.44-10.57L143.29,7.58h3.77l5.18,7.4,5.2-7.4Z" />
                    <polygon class="cls-2"
                        points="17.71 12.51 23.63 15.93 34.43 9.66 17.71 0 0.97 9.66 11.77 15.93 17.71 12.51" />
                    <polygon class="cls-1"
                        points="10.82 24.56 10.82 17.78 0 11.52 0 30.8 16.72 40.46 16.72 27.95 10.82 24.56" />
                    <polygon class="cls-1"
                        points="24.58 24.56 24.58 17.78 35.4 11.52 35.4 30.8 18.68 40.46 18.68 27.95 24.58 24.56" />
                    <path class="cls-1"
                        d="M86.29,34.48H87V36c.14-.21.28-.41.44-.62a3.79,3.79,0,0,1,.53-.53,2.26,2.26,0,0,1,.63-.37,1.84,1.84,0,0,1,.74-.14,2,2,0,0,1,.95.23,2.58,2.58,0,0,1,.78.65,3.17,3.17,0,0,1,.53,1,3.59,3.59,0,0,1,0,2.42,3.34,3.34,0,0,1-.53,1,2.7,2.7,0,0,1-.78.64,2,2,0,0,1-.95.23,4.55,4.55,0,0,1-.53,0,1.68,1.68,0,0,1-.58-.21,3.7,3.7,0,0,1-.6-.44A5.78,5.78,0,0,1,87,39v3.58h-.74Zm1.37,1.27A2.33,2.33,0,0,0,87,37.41a2.41,2.41,0,0,0,.16.88,2.64,2.64,0,0,0,.44.74,2.49,2.49,0,0,0,.65.51,1.74,1.74,0,0,0,1.57,0A1.92,1.92,0,0,0,90.5,39a2.05,2.05,0,0,0,.44-.74,2.5,2.5,0,0,0,0-1.76,2.14,2.14,0,0,0-.44-.74,2,2,0,0,0-.65-.51,1.93,1.93,0,0,0-.78-.18,2,2,0,0,0-.79.16,2.14,2.14,0,0,0-.62.49Z" />
                    <path class="cls-1"
                        d="M93.35,34.43v1.39a2.57,2.57,0,0,1,.41-.74,1.64,1.64,0,0,1,.51-.47,2.15,2.15,0,0,1,.51-.23,3.43,3.43,0,0,1,.44-.09v.76H95a1.51,1.51,0,0,0-.62.14,2.18,2.18,0,0,0-.54.35,1.8,1.8,0,0,0-.37.53,1.7,1.7,0,0,0-.13.67v3.65h-.74v-6Z" />
                    <path class="cls-1" d="M96.93,31.12v1.07h-.74V31.12Zm0,3.31v5.94h-.74V34.43Z" />
                    <path class="cls-1"
                        d="M99.1,34.43v1.46c.4-1.07,1-1.6,1.92-1.6a1.88,1.88,0,0,1,.86.21,2.59,2.59,0,0,1,.69.53,2.5,2.5,0,0,1,.65,1.69v3.65h-.76V36.72a1.69,1.69,0,0,0-.12-.6,1.76,1.76,0,0,0-.37-.56,1.68,1.68,0,0,0-1.18-.51,1.51,1.51,0,0,0-.62.14,2.18,2.18,0,0,0-.54.35,1.8,1.8,0,0,0-.37.53,1.7,1.7,0,0,0-.13.67v3.65h-.74V34.45h.71Z" />
                    <path class="cls-1"
                        d="M104.65,40.39V35.22H104v-.77h.65v-2h.74v2h.74v.77h-.74v5.17Z" />
                    <path class="cls-1"
                        d="M111.06,40.39V35.22h-.65v-.77h.65v-2h.74v2h.74v.77h-.74v5.17Z" />
                    <path class="cls-1"
                        d="M116.4,34.34a3,3,0,0,1,1.18.23,2.82,2.82,0,0,1,1,.67,3.37,3.37,0,0,1,.67,1,3.07,3.07,0,0,1,.25,1.2,2.78,2.78,0,0,1-.25,1.2,3.16,3.16,0,0,1-.67,1,3.21,3.21,0,0,1-1,.64,3,3,0,0,1-2.38,0,2.85,2.85,0,0,1-1-.67,3.38,3.38,0,0,1-.64-1,3.12,3.12,0,0,1,0-2.35,2.85,2.85,0,0,1,.67-1,3.5,3.5,0,0,1,1-.67A2.65,2.65,0,0,1,116.4,34.34ZM118,35.79a2.19,2.19,0,0,0-1.65-.67,2.16,2.16,0,0,0-.87.19,2.2,2.2,0,0,0-.74.48,3,3,0,0,0-.51.74,2.2,2.2,0,0,0,0,1.81,2.33,2.33,0,0,0,.51.74,2.2,2.2,0,0,0,.74.48,2.16,2.16,0,0,0,.87.19,2.35,2.35,0,0,0,.91-.19,2.42,2.42,0,0,0,.74-.48,2.71,2.71,0,0,0,.51-.74,2.53,2.53,0,0,0,.18-.9,2.13,2.13,0,0,0-.69-1.65Z" />
                    <path class="cls-1"
                        d="M126.76,34.34a2.72,2.72,0,0,1,.74.09,4,4,0,0,1,.69.25v.91a2.2,2.2,0,0,0-1.43-.49,2.49,2.49,0,0,0-.9.18,2.31,2.31,0,0,0-1.23,1.23,2.43,2.43,0,0,0,0,1.8,2.23,2.23,0,0,0,1.23,1.23,2.49,2.49,0,0,0,.9.18,2.61,2.61,0,0,0,1.43-.46v.88a2.1,2.1,0,0,1-.67.25,3.71,3.71,0,0,1-.74.07,3,3,0,0,1-2.15-.9,2.76,2.76,0,0,1-.65-1,2.92,2.92,0,0,1-.23-1.18,3,3,0,0,1,.23-1.18,3.06,3.06,0,0,1,.65-1,3.12,3.12,0,0,1,1-.67A2.77,2.77,0,0,1,126.76,34.34Z" />
                    <path class="cls-1"
                        d="M132.14,34.34a3,3,0,0,1,1.18.23,2.73,2.73,0,0,1,1,.67,3.62,3.62,0,0,1,.68,1,3.07,3.07,0,0,1,.25,1.2,2.78,2.78,0,0,1-.25,1.2,3.37,3.37,0,0,1-.68,1,3,3,0,0,1-1,.64,3,3,0,0,1-3.35-.67,3.24,3.24,0,0,1-.65-1,2.92,2.92,0,0,1-.23-1.18,3,3,0,0,1,.23-1.18,3.24,3.24,0,0,1,.65-1,3.12,3.12,0,0,1,1-.67A3.27,3.27,0,0,1,132.14,34.34Zm1.65,1.45a2.19,2.19,0,0,0-1.65-.67,2.16,2.16,0,0,0-.87.19,2.2,2.2,0,0,0-.74.48,3,3,0,0,0-.51.74,2.2,2.2,0,0,0,0,1.81,2.28,2.28,0,0,0,1.22,1.22,2.25,2.25,0,0,0,.88.19,2.47,2.47,0,0,0,1.64-.67,3,3,0,0,0,.51-.74,2.34,2.34,0,0,0,.19-.9A2.05,2.05,0,0,0,133.79,35.79Z" />
                    <path class="cls-1"
                        d="M136.86,34.43v1.46c.39-1.07,1-1.6,1.92-1.6a1.88,1.88,0,0,1,.86.21,2.76,2.76,0,0,1,.69.53,2.5,2.5,0,0,1,.46.76,2.45,2.45,0,0,1,.19.93v3.65h-.74V36.72a1.69,1.69,0,0,0-.12-.6,1.76,1.76,0,0,0-.37-.56,1.68,1.68,0,0,0-1.18-.51,1.55,1.55,0,0,0-.62.14,2,2,0,0,0-.53.35,1.5,1.5,0,0,0-.37.53,1.55,1.55,0,0,0-.14.67v3.65h-.74V34.45h.69Z" />
                    <path class="cls-1"
                        d="M142.78,34.43v1.46c.39-1.07,1-1.6,1.92-1.6a1.88,1.88,0,0,1,.86.21,2.76,2.76,0,0,1,.69.53,2.5,2.5,0,0,1,.46.76,2.45,2.45,0,0,1,.19.93v3.65h-.77V36.72a1.68,1.68,0,0,0-.11-.6,1.76,1.76,0,0,0-.37-.56,1.7,1.7,0,0,0-1.18-.51,1.6,1.6,0,0,0-.63.14,2.12,2.12,0,0,0-.53.35,1.8,1.8,0,0,0-.37.53,1.71,1.71,0,0,0-.14.67v3.65h-.74V34.45h.72Z" />
                    <path class="cls-1"
                        d="M150.8,34.34a3,3,0,0,1,1.18.23,2.73,2.73,0,0,1,1,.67,3.62,3.62,0,0,1,.68,1,3.07,3.07,0,0,1,.25,1.2v.28h-5.39a3,3,0,0,0,.95,1.5,2,2,0,0,0,1.36.51,2.28,2.28,0,0,0,1.46-.51h1a2.75,2.75,0,0,1-1.11,1,3.18,3.18,0,0,1-1.39.32,3,3,0,0,1-2.15-.9,3.21,3.21,0,0,1-.64-1,2.76,2.76,0,0,1-.23-1.18,2.79,2.79,0,0,1,.23-1.18,3.21,3.21,0,0,1,.64-1,3.12,3.12,0,0,1,1-.67A3.17,3.17,0,0,1,150.8,34.34Zm2.36,2.77a3,3,0,0,0-1-1.48,2.22,2.22,0,0,0-1.41-.51,2,2,0,0,0-.72.14,2.2,2.2,0,0,0-.64.39,3.72,3.72,0,0,0-.56.63,3.47,3.47,0,0,0-.39.85Z" />
                    <path class="cls-1"
                        d="M157.58,34.34a2.72,2.72,0,0,1,.74.09,4,4,0,0,1,.69.25v.91a2.2,2.2,0,0,0-1.43-.49,2.49,2.49,0,0,0-.9.18,2.23,2.23,0,0,0-1.23,1.23,2.43,2.43,0,0,0,0,1.8,2.25,2.25,0,0,0,1.23,1.23,2.49,2.49,0,0,0,.9.18,2.25,2.25,0,0,0,.76-.13,2.61,2.61,0,0,0,.67-.33v.88a2.1,2.1,0,0,1-.67.25,3.64,3.64,0,0,1-.74.07,3,3,0,0,1-2.15-.9,3.24,3.24,0,0,1-.65-1,2.92,2.92,0,0,1-.23-1.18,3,3,0,0,1,.23-1.18,3.24,3.24,0,0,1,.65-1,3.12,3.12,0,0,1,1-.67A2.88,2.88,0,0,1,157.58,34.34Z" />
                    <path class="cls-1"
                        d="M160.52,40.39V35.22h-.65v-.77h.65v-2h.74v2H162v.77h-.74v5.17Z" />
                </g>
            </g>
        </g>
    </g>
</svg>