<svg xmlns="http://www.w3.org/2000/svg" viewBox="0 0 29.92 27.2"><defs><style>.cls-1{fill:none;stroke-linecap:round;stroke-linejoin:round;}.cls-1,.cls-2{stroke:#fff;}.cls-2{fill:#1d1d1b;stroke-miterlimit:10;}</style></defs><g id="Capa_2" data-name="Capa 2"><g id="Layer_2" data-name="Layer 2"><path class="cls-1" d="M.5,8.87,14.9.5,29.42,8.88,15,17.25.5,8.87"/><path class="cls-1" d="M6.33,17,.5,13.59m24.8-2.36,4.12,2.37L15,22,9.6,18.85M.5,13.59l4.08-2.36"/><path class="cls-1" d="M25.34,16l4.08,2.36L15,26.7.5,18.32m0,0L4.58,16"/><circle class="cls-2" cx="6.18" cy="8.87" r="0.39"/><circle class="cls-2" cx="6.98" cy="8.38" r="0.39"/><circle class="cls-2" cx="7.78" cy="7.89" r="0.39"/><circle class="cls-2" cx="8.58" cy="7.39" r="0.39"/><circle class="cls-2" cx="9.37" cy="6.9" r="0.39"/><circle class="cls-2" cx="10.17" cy="6.4" r="0.39"/><circle class="cls-2" cx="10.97" cy="5.91" r="0.39"/><circle class="cls-2" cx="11.77" cy="5.42" r="0.39"/><circle class="cls-2" cx="12.56" cy="4.92" r="0.39"/><circle class="cls-2" cx="13.36" cy="4.43" r="0.39"/><circle class="cls-2" cx="14.16" cy="3.93" r="0.39"/><circle class="cls-2" cx="14.96" cy="3.44" r="0.39"/><circle class="cls-2" cx="8.81" cy="10.22" r="0.39"/><circle class="cls-2" cx="9.61" cy="9.72" r="0.39"/><circle class="cls-2" cx="10.41" cy="9.23" r="0.39"/><circle class="cls-2" cx="11.21" cy="8.73" r="0.39"/><circle class="cls-2" cx="12" cy="8.24" r="0.39"/><circle class="cls-2" cx="12.8" cy="7.75" r="0.39"/><circle class="cls-2" cx="13.6" cy="7.25" r="0.39"/><circle class="cls-2" cx="14.4" cy="6.76" r="0.39"/><circle class="cls-2" cx="15.2" cy="6.26" r="0.39"/><circle class="cls-2" cx="15.99" cy="5.77" r="0.39"/><circle class="cls-2" cx="16.79" cy="5.27" r="0.39"/><circle class="cls-2" cx="17.59" cy="4.78" r="0.39"/><circle class="cls-2" cx="11.44" cy="11.56" r="0.39"/><circle class="cls-2" cx="12.24" cy="11.06" r="0.39"/><circle class="cls-2" cx="13.04" cy="10.57" r="0.39"/><circle class="cls-2" cx="13.84" cy="10.08" r="0.39"/><circle class="cls-2" cx="14.63" cy="9.58" r="0.39"/><circle class="cls-2" cx="15.43" cy="9.09" r="0.39"/><circle class="cls-2" cx="16.23" cy="8.59" r="0.39"/><circle class="cls-2" cx="17.03" cy="8.1" r="0.39"/><circle class="cls-2" cx="17.83" cy="7.6" r="0.39"/><circle class="cls-2" cx="18.62" cy="7.11" r="0.39"/><circle class="cls-2" cx="19.42" cy="6.62" r="0.39"/><circle class="cls-2" cx="20.22" cy="6.12" r="0.39"/><circle class="cls-2" cx="14.07" cy="12.9" r="0.39"/><circle class="cls-2" cx="14.87" cy="12.41" r="0.39"/><circle class="cls-2" cx="15.67" cy="11.91" r="0.39"/><circle class="cls-2" cx="16.47" cy="11.42" r="0.39"/><circle class="cls-2" cx="17.27" cy="10.92" r="0.39"/><circle class="cls-2" cx="18.06" cy="10.43" r="0.39"/><circle class="cls-2" cx="18.86" cy="9.93" r="0.39"/><circle class="cls-2" cx="19.66" cy="9.44" r="0.39"/><circle class="cls-2" cx="20.46" cy="8.95" r="0.39"/><circle class="cls-2" cx="21.25" cy="8.45" r="0.39"/><circle class="cls-2" cx="22.05" cy="7.96" r="0.39"/><circle class="cls-2" cx="22.85" cy="7.46" r="0.39"/></g></g></svg>