<svg xmlns="http://www.w3.org/2000/svg" viewBox="0 0 22.15 22.15"><g id="Capa_2" data-name="Capa 2"><g id="Layer_3" data-name="Layer 3"><path d="M11.08,0A11.08,11.08,0,1,0,22.15,11.08,11.08,11.08,0,0,0,11.08,0ZM7.42,17.13H5.06c-.13,0-.17,0-.17-.17q0-4.2,0-8.42c0-.11,0-.16.15-.16h2.4c.16,0,.18.06.18.19,0,1.4,0,2.8,0,4.2s0,2.77,0,4.16C7.62,17.08,7.58,17.13,7.42,17.13ZM6.26,7.18A1.57,1.57,0,1,1,6.26,4a1.57,1.57,0,1,1,0,3.14ZM17.81,17c0,.14,0,.18-.18.18H15.26c-.14,0-.17-.05-.17-.18,0-1.45,0-2.91,0-4.36A4.45,4.45,0,0,0,15,11.5a1.23,1.23,0,0,0-1.34-.95A1.46,1.46,0,0,0,12.09,12a5.32,5.32,0,0,0,0,.69c0,1.41,0,2.83,0,4.24,0,.15,0,.19-.18.19H9.49c-.13,0-.17,0-.16-.17q0-4.2,0-8.41c0-.13,0-.17.18-.17h2.26c.14,0,.18,0,.17.18v1A7.37,7.37,0,0,1,12.45,9a2.8,2.8,0,0,1,2.05-.81,4.28,4.28,0,0,1,1.28.16,2.49,2.49,0,0,1,1.79,1.87,7.87,7.87,0,0,1,.24,2.16C17.81,13.89,17.8,15.42,17.81,17Z"/></g></g></svg>