<svg xmlns="http://www.w3.org/2000/svg" viewBox="0 0 22.15 22.15"><g id="Capa_2" data-name="Capa 2"><g id="Layer_3" data-name="Layer 3"><path d="M11.08,8.75a2.33,2.33,0,1,0,2.32,2.33A2.33,2.33,0,0,0,11.08,8.75ZM16.51,7a2.3,2.3,0,0,0-1.32-1.32,3.78,3.78,0,0,0-1.3-.24c-.73,0-1,0-2.81,0s-2.09,0-2.82,0A3.78,3.78,0,0,0,7,5.64,2.3,2.3,0,0,0,5.64,7a3.78,3.78,0,0,0-.24,1.3c0,.73,0,1,0,2.82s0,2.08,0,2.81a3.78,3.78,0,0,0,.24,1.3A2.3,2.3,0,0,0,7,16.51a3.78,3.78,0,0,0,1.3.24c.73,0,1,0,2.82,0s2.08,0,2.81,0a3.78,3.78,0,0,0,1.3-.24,2.3,2.3,0,0,0,1.32-1.32,3.78,3.78,0,0,0,.24-1.3c0-.73,0-1,0-2.81s0-2.09,0-2.82A3.78,3.78,0,0,0,16.51,7Zm-5.43,7.7a3.59,3.59,0,1,1,3.58-3.58A3.59,3.59,0,0,1,11.08,14.66ZM14.8,8.19A.85.85,0,0,1,14,7.35a.84.84,0,0,1,.84-.83.83.83,0,0,1,.83.83A.84.84,0,0,1,14.8,8.19ZM11.08,0A11.08,11.08,0,1,0,22.15,11.08,11.08,11.08,0,0,0,11.08,0ZM18,14a5.3,5.3,0,0,1-.33,1.69,3.5,3.5,0,0,1-2,2A5.3,5.3,0,0,1,14,18c-.74,0-1,0-2.87,0S8.94,18,8.2,18a5.3,5.3,0,0,1-1.69-.33,3.5,3.5,0,0,1-2-2A5.3,5.3,0,0,1,4.14,14c0-.74,0-1,0-2.87s0-2.14,0-2.88a5.3,5.3,0,0,1,.33-1.69,3.5,3.5,0,0,1,2-2A5.3,5.3,0,0,1,8.2,4.14c.74,0,1,0,2.88,0s2.13,0,2.87,0a5.3,5.3,0,0,1,1.69.33,3.5,3.5,0,0,1,2,2A5.3,5.3,0,0,1,18,8.2c0,.74,0,1,0,2.88S18,13.21,18,14Z"/></g></g></svg>