<svg xmlns="http://www.w3.org/2000/svg" viewBox="0 0 25.29 35.01"><defs><style>.cls-1{fill:#000;}</style></defs><g id="Capa_2" data-name="Capa 2"><g id="Layer_3" data-name="Layer 3"><path class="cls-1" d="M24.58,22.41c-6.53-1.87-7.07-5.52-7.07-8.79v-1a4.87,4.87,0,0,0-9.73,0v1c0,4.49-2.38,7.44-7.07,8.79A1,1,0,0,0,0,23.61a1,1,0,0,0,1.2.67c7-2,8.49-6.91,8.49-10.66v-1a2.92,2.92,0,0,1,5.83,0v1c0,4.07,1,8.52,8.49,10.66a1.09,1.09,0,0,0,.26,0,1,1,0,0,0,.27-1.9Z"/><path class="cls-1" d="M13.62,14.59V12.64a1,1,0,0,0-1.95,0v1.95c0,5.69-3.69,9.63-11,11.71A1,1,0,0,0,1,28.2a1.24,1.24,0,0,0,.27,0c8.1-2.32,12.38-7,12.38-13.58Z"/><path class="cls-1" d="M23.48,26.23a10.49,10.49,0,0,1-7.23-4.06,1.88,1.88,0,0,0-1.67-.77A2,2,0,0,0,13,22.46C11.1,26,8.13,28,2.7,29.2a1,1,0,0,0,.22,1.92l.22,0c6-1.38,9.42-3.69,11.55-7.77a12.54,12.54,0,0,0,8.51,4.82,1,1,0,0,0,1.07-.83,1,1,0,0,0-.79-1.09Z"/><path class="cls-1" d="M21.52,29.18a10.25,10.25,0,0,1-4.44-1.71A1.94,1.94,0,0,0,15.54,27a1.91,1.91,0,0,0-1.36.79,14.14,14.14,0,0,1-6.71,4.39A1,1,0,0,0,8.09,34a16.05,16.05,0,0,0,7.67-5.09,11.93,11.93,0,0,0,5.51,2.21,1,1,0,0,0,.74-.18.94.94,0,0,0,.38-.65,1,1,0,0,0-.2-.73,1,1,0,0,0-.67-.37Z"/><path class="cls-1" d="M19.45,32.45a2.94,2.94,0,0,1-2.05-.88,1.48,1.48,0,0,0-1.21-.44,1.46,1.46,0,0,0-1.09.66,4,4,0,0,1-1.86,1.35,1,1,0,0,0,.75,1.8,6.29,6.29,0,0,0,2.41-1.66,4.75,4.75,0,0,0,3.05,1.11,1,1,0,1,0,0-1.94Z"/><path class="cls-1" d="M24.75,18.57c-3.35-1.67-3.35-3.09-3.35-5.93a8.76,8.76,0,0,0-17.51,0c0,2,0,4.26-3.35,5.93a1,1,0,1,0,.87,1.75c4.43-2.21,4.43-5.5,4.43-7.68a6.81,6.81,0,0,1,13.61,0c0,2.93,0,5.47,4.43,7.68a1,1,0,0,0,1.3-.43,1,1,0,0,0-.43-1.31Z"/><path class="cls-1" d="M12.64,0A12.67,12.67,0,0,0,0,12.64v1.95a1,1,0,0,0,2,0V12.64a10.7,10.7,0,0,1,21.39,0v1.95a1,1,0,0,0,1.95,0V12.64A12.67,12.67,0,0,0,12.64,0Z"/></g></g></svg>