<svg xmlns="http://www.w3.org/2000/svg" viewBox="0 0 26.16 24.07"><defs><style>.cls-1,.cls-2,.cls-3{fill:none;stroke:#fff;}.cls-1{stroke-linecap:round;stroke-linejoin:round;}.cls-2,.cls-3{stroke-miterlimit:10;}.cls-3{stroke-width:0.75px;}</style></defs><g id="Capa_2" data-name="Capa 2"><g id="Layer_2" data-name="Layer 2"><polyline class="cls-1" points="25.66 20.97 25.66 23.57 8.89 23.57 8.89 6.79 25.66 6.79 25.66 18.13"/><polyline class="cls-2" points="8.89 17.28 0.5 17.28 0.5 0.5 17.28 0.5 17.28 7.08"/><polyline class="cls-3" points="11.07 18.86 13.2 20.69 15.32 18.86 17.45 20.69 19.57 18.86 21.7 20.69 23.83 18.86"/><polyline class="cls-3" points="11.07 15.79 13.2 17.63 15.32 15.79 17.45 17.63 19.57 15.79 21.7 17.63 23.83 15.79"/><polyline class="cls-3" points="11.07 12.73 13.2 14.57 15.32 12.73 17.45 14.57 19.57 12.73 21.7 14.57 23.83 12.73"/><polyline class="cls-3" points="11.07 9.67 13.2 11.5 15.32 9.67 17.45 11.5 19.57 9.67 21.7 11.5 23.83 9.67"/><line class="cls-2" x1="0.5" y1="2.64" x2="17.28" y2="2.64"/><line class="cls-2" x1="0.5" y1="4.74" x2="17.28" y2="4.74"/><line class="cls-2" x1="0.5" y1="6.83" x2="8.89" y2="6.83"/><line class="cls-2" x1="0.5" y1="8.93" x2="8.89" y2="8.93"/><line class="cls-2" x1="0.5" y1="11.03" x2="8.89" y2="11.03"/><line class="cls-2" x1="0.5" y1="13.12" x2="8.89" y2="13.12"/><line class="cls-2" x1="0.5" y1="15.22" x2="8.89" y2="15.22"/></g></g></svg>