<svg xmlns="http://www.w3.org/2000/svg" viewBox="0 0 38.61 21.2"><defs><style>.cls-1,.cls-3{fill:none;}.cls-1,.cls-2,.cls-3{stroke:#fff;}.cls-1,.cls-2{stroke-miterlimit:10;}.cls-2{fill:#1d1d1b;}.cls-3{stroke-linecap:round;stroke-linejoin:round;}</style></defs><g id="Capa_2" data-name="Capa 2"><g id="Layer_2" data-name="Layer 2"><path class="cls-1" d="M38.11,12.62a8.08,8.08,0,1,1-16.16,0C22,8.16,30,.68,30,.68S38.11,8.16,38.11,12.62Z"/><path class="cls-2" d="M24.67,6.67a49.62,49.62,0,0,0-5.36-6s-8.08,7.48-8.08,11.94a8,8,0,0,0,13.44,6,8,8,0,0,1-2.71-6C22,10.89,23.18,8.7,24.67,6.67Z"/><path class="cls-3" d="M5.77,3.56C7.31,1.86,8.58.68,8.58.68s8.08,7.48,8.08,11.94a8.08,8.08,0,0,1-16.16,0c0-2,1.62-4.6,3.41-6.87"/></g></g></svg>