<svg xmlns="http://www.w3.org/2000/svg" viewBox="0 0 29.94 30.06"><defs><style>.cls-1{fill:none;stroke:#fff;stroke-linecap:round;stroke-linejoin:round;stroke-width:2px;}</style></defs><g id="Capa_2" data-name="Capa 2"><g id="Layer_3" data-name="Layer 3"><path class="cls-1" d="M28.71,14.43,26,11.75V3.6a.75.75,0,0,0-.74-.74H21.49a.74.74,0,0,0-.73.74V6.47L15.51,1.23a.73.73,0,0,0-1.07,0L1.24,14.43a.73.73,0,0,0,.5,1.27H4.38V28.29a.78.78,0,0,0,.77.77H24.84a.77.77,0,0,0,.76-.77V15.7h2.61a.74.74,0,0,0,.5-1.27ZM14,15.6v4H10v-4Z"/></g></g></svg>