<svg xmlns="http://www.w3.org/2000/svg" viewBox="0 0 29 30.83"><defs><style>.cls-1{fill:none;stroke:#fff;stroke-linecap:round;stroke-linejoin:round;stroke-width:2px;}</style></defs><g id="Capa_2" data-name="Capa 2"><g id="Layer_3" data-name="Layer 3"><path class="cls-1" d="M20.58,6.71A8.73,8.73,0,0,1,28,15.56,18,18,0,0,1,27.36,20a17,17,0,0,1-5,8.24,6.15,6.15,0,0,1-5.23,1.49c-.82-.13-1.62-.38-2.41-.57a1.45,1.45,0,0,0-.51,0l-1.8.48a6.41,6.41,0,0,1-5.65-1.27A12.62,12.62,0,0,1,5.1,26.62a17.15,17.15,0,0,1-3.39-6.37A16.84,16.84,0,0,1,1,16.32a10.24,10.24,0,0,1,.07-2.41A8.45,8.45,0,0,1,3.93,8.8a9,9,0,0,1,6.78-2.15,16.83,16.83,0,0,1,2.83.44c.15,0,.19,0,.19-.16a4.06,4.06,0,0,0-.13-1,4.82,4.82,0,0,0-2.35-3.18c-.25-.15-.25-.15-.12-.44s.34-.67.47-1a.19.19,0,0,1,.29-.1c.22.13.44.25.66.41a6.39,6.39,0,0,1,2.06,2.35c.1.16.13.16.23,0a4.08,4.08,0,0,1,.6-.73A7.1,7.1,0,0,1,20.51,1a8.52,8.52,0,0,1,3.3.73c.13.06.13.13.06.22A9.3,9.3,0,0,1,22,4.2a7.15,7.15,0,0,1-4.44,1.69,6.61,6.61,0,0,1-2.21-.32c-.1,0-.2-.07-.16.09A4.35,4.35,0,0,1,15.34,7c0,.13,0,.13.16.1a15.37,15.37,0,0,1,4-.48l1.11.13Z"/></g></g></svg>