<svg xmlns="http://www.w3.org/2000/svg" viewBox="0 0 32.94 19.5"><defs><style>.cls-1{fill:none;stroke:#fff;stroke-linecap:round;stroke-linejoin:round;stroke-width:2px;}</style></defs><g id="Capa_2" data-name="Capa 2"><g id="Layer_3" data-name="Layer 3"><path class="cls-1" d="M31.13,16.94h-.65L28.85,1.68A.74.74,0,0,0,28.1,1h-4a.75.75,0,0,0-.75.65l-.81,5.73L17.69,4.12a.53.53,0,0,0-.81.33l-.65,2.76L11.61,4.12a.54.54,0,0,0-.82.33l-.65,2.76-4.62-3a.51.51,0,0,0-.81.35L2.43,16.94H1.78a.78.78,0,1,0,0,1.56H31.16a.79.79,0,0,0,.78-.78.84.84,0,0,0-.81-.78Zm-9-5a.66.66,0,0,1,.65-.65h2.35a.66.66,0,0,1,.65.65v2a.66.66,0,0,1-.65.66H22.73a.66.66,0,0,1-.65-.66Zm-7.22,0a.65.65,0,0,1,.65-.65h2.34a.65.65,0,0,1,.65.65v2a.66.66,0,0,1-.65.66H15.51a.66.66,0,0,1-.65-.66Zm-7.22,0a.65.65,0,0,1,.65-.65H10.6a.65.65,0,0,1,.65.65v2a.66.66,0,0,1-.65.66H8.26a.67.67,0,0,1-.66-.66v-2Z"/></g></g></svg>