<svg xmlns="http://www.w3.org/2000/svg" viewBox="0 0 29.12 24.61"><defs><style>.cls-1{fill:none;stroke:#fff;stroke-linecap:round;stroke-linejoin:round;stroke-width:2px;}</style></defs><g id="Capa_2" data-name="Capa 2"><g id="Layer_3" data-name="Layer 3"><path class="cls-1" d="M4.69,4H1.89A4,4,0,0,1,1.4,4a.43.43,0,0,1-.3-.22A.72.72,0,0,1,1,3.39C1,2.52,1,1.9,1,1.55A.5.5,0,0,1,1.4,1,4.57,4.57,0,0,1,2,1H7.62a.58.58,0,0,1,.62.41L9.6,5.31a0,0,0,0,0,.05,0H26.39a2.61,2.61,0,0,1,.78.1,1.53,1.53,0,0,1,.72.61,1.5,1.5,0,0,1,.22.92,6.46,6.46,0,0,1-.24.86q-1.56,4.7-3.11,9.39a4.44,4.44,0,0,1-.44,1,1.5,1.5,0,0,1-.92.57,9,9,0,0,1-1,0H11.82a1.41,1.41,0,0,1-1.19-.56,2.57,2.57,0,0,1-.35-.75Q8.12,11.06,6,4.56H6a1.58,1.58,0,0,0-.14-.36A.58.58,0,0,0,5.63,4,.62.62,0,0,0,5.4,4C5.19,4,5,4,4.69,4Z"/><path class="cls-1" d="M15.22,21.72a1.9,1.9,0,1,1-1.9-1.9,1.9,1.9,0,0,1,1.9,1.9"/><path class="cls-1" d="M23.69,21.72a1.9,1.9,0,1,1-1.9-1.9,1.9,1.9,0,0,1,1.9,1.9"/></g></g></svg>