<svg xmlns="http://www.w3.org/2000/svg" viewBox="0 0 33.24 30.32"><defs><style>.cls-1{fill:none;stroke:#e2e2e2;stroke-linecap:round;stroke-linejoin:round;stroke-width:2px;}</style></defs><g id="Capa_2" data-name="Capa 2"><g id="Layer_3" data-name="Layer 3"><path class="cls-1" d="M15.05,5.94,1.31,14.6a.68.68,0,0,0-.2.94l2.27,3.59a.58.58,0,0,0,.43.29.67.67,0,0,0,.51-.09,3.13,3.13,0,0,1,2.31-.41,3,3,0,0,1,1.92,1.36A3.13,3.13,0,0,1,9,22.59,3,3,0,0,1,7.6,24.51a.58.58,0,0,0-.29.43.67.67,0,0,0,.09.51L9.6,29a.61.61,0,0,0,.43.29.88.88,0,0,0,.51-.09l13.71-8.68Z"/><path class="cls-1" d="M23.21,1a.68.68,0,0,0-.52.09L16.58,5l9.23,14.63,6.11-3.85a.52.52,0,0,0,.17-.16.67.67,0,0,0,0-.79l-2.27-3.58a.56.56,0,0,0-.42-.29.73.73,0,0,0-.52.08,3,3,0,0,1-2.31.41,3,3,0,0,1-1.92-1.36,3.13,3.13,0,0,1-.41-2.31,3,3,0,0,1,1.36-1.92.67.67,0,0,0,.2-.94L23.56,1.29c0-.13-.19-.22-.35-.27Z"/></g></g></svg>