<svg xmlns="http://www.w3.org/2000/svg" viewBox="0 0 36.57 27.65"><defs><style>.cls-1{fill:#696969;}</style></defs><g id="Capa_2" data-name="Capa 2"><g id="Layer_3" data-name="Layer 3"><rect class="cls-1" x="11.7" y="17.35" width="0.78" height="1.1" transform="translate(-5.55 5.43) rotate(-20.7)"/><rect class="cls-1" x="10.91" y="15.25" width="0.78" height="1.1" transform="translate(-4.86 5.02) rotate(-20.7)"/><rect class="cls-1" x="9.34" y="11.11" width="0.78" height="1.1" transform="translate(-3.5 4.19) rotate(-20.7)"/><rect class="cls-1" x="10.1" y="13.2" width="0.78" height="1.1" transform="translate(-4.18 4.6) rotate(-20.7)"/><path class="cls-1" d="M26,9.53,25.12,7.2,21.19,8.67,22.05,11Zm-1.3-1.35L25,9,22.5,10l-.33-.86Z"/><rect class="cls-1" x="15.56" y="11.65" width="5.64" height="0.78" transform="translate(-3.07 7.27) rotate(-20.7)"/><rect class="cls-1" x="14.96" y="10.03" width="5.64" height="0.78" transform="translate(-2.53 6.96) rotate(-20.7)"/><rect class="cls-1" x="16.22" y="13.58" width="3.89" height="0.78" transform="translate(-3.76 7.32) rotate(-20.7)"/><rect class="cls-1" x="9" y="12.57" width="0.78" height="5.64" transform="translate(-4.84 4.31) rotate(-20.71)"/><rect class="cls-1" x="13.55" y="23.28" width="0.78" height="1.1" transform="translate(-0.05 0.03) rotate(-0.11)"/><path class="cls-1" d="M25.69,18.41V20.9H29.9V18.41Zm.78,1.67v-.94h2.65v.94Z"/><rect class="cls-1" x="19.1" y="20.17" width="5.64" height="0.78"/><rect class="cls-1" x="19.1" y="21.88" width="3.89" height="0.78"/><path class="cls-1" d="M34.52,13.21,29.53,0,9.2,7.69l.13.37a.83.83,0,0,1,0,.69,1.13,1.13,0,0,1-.5.49.9.9,0,0,1-1.14-.53l-.12-.37L0,11.17,5,24.42v3.23h8v-.37a.9.9,0,1,1,1.8,0v.37l21.76,0,0-14.4ZM29.08,1l4.54,12-1.14.45L27.94,1.43ZM5,10.1l.45,1.19-1.63-.74Zm-2.21.82,3.07,1.39.2.58L2.21,11.13ZM1,11.62l.21-.08L6.5,14l.21.57L1.15,12ZM1.51,13,7.08,15.5l.2.58L1.76,13.62Zm.62,1.63,5.56,2.5.2.57L2.33,15.22Zm.61,1.6L8.3,18.73l.21.58L3,16.81Zm.61,1.59,5.57,2.5.2.57L3.56,18.41ZM4,19.43l5.56,2.5,0,.16-.41.16L4.17,20Zm5.27,3.64.45-.16.41.41v.61ZM10.1,25v.62L8,23.52l.45-.16ZM4.79,21.64l-.21-.57,3.56,1.59-.57.21Zm.36,1,1.35.62-1,.36Zm.62,4.26V25.85l1.06,1.07Zm2.17,0L5.77,24.79v-.37l.16-.08,2.58,2.58Zm1.71,0-2.9-2.87.45-.16,2.9,2.9V27ZM5.77,9.82l1.35-.49a1.69,1.69,0,0,0,1.39.73h.2l.08.25L9.53,10l-.08-.24a1.64,1.64,0,0,0,.57-.7,1.66,1.66,0,0,0,.12-.9L27.2,1.72l4.54,12L14.68,20.21a1.69,1.69,0,0,0-1.39-.74h-.2l0-.16-.74.28,0,.17a1.68,1.68,0,0,0-.73,1.59l-1.31.49Zm9.81,17.05a1.73,1.73,0,0,0-1-1.18.36.36,0,0,0-.2,0v-.17h-.78v.17a1.64,1.64,0,0,0-1.23,1.22H10.92V22.46l1-.41v1.31h.78V20.45a1.82,1.82,0,0,1,.29-.2.9.9,0,0,1,1.14.53l.09.25h-.7v1.1h.78v-1l5.11-1.92h5.32v-.78H21.52L33.3,14h.53l0,12.84Zm19,0,0-12.84h1.23l0,12.84Z"/></g></g></svg>