<svg xmlns="http://www.w3.org/2000/svg" viewBox="0 0 28.12 36.62"><defs><style>.cls-1,.cls-2,.cls-3{fill:none;stroke-width:0.44px;}.cls-1,.cls-2{stroke:#1d1d1b;stroke-miterlimit:10;}.cls-2,.cls-3{stroke-linecap:round;}.cls-3{stroke:#000;stroke-linejoin:round;}</style></defs><g id="Capa_2" data-name="Capa 2"><g id="Layer_3" data-name="Layer 3"><path class="cls-1" d="M10.15,12.22V22.37a4.85,4.85,0,0,0,1.6,3.6v7.29a1.83,1.83,0,0,0,.42,1.29,1.76,1.76,0,0,0,1.21.61,1.78,1.78,0,0,0,1.23-.61,1.83,1.83,0,0,0,.44-1.29V7.37a4.85,4.85,0,0,0-4.9,4.85Z"/><path class="cls-2" d="M3,31.16v2.1a1.76,1.76,0,0,0,.41,1.29,1.72,1.72,0,0,0,1.21.61,1.78,1.78,0,0,0,1.63-1.9V19.77H7.79a1.18,1.18,0,0,0,.89-.33,1.21,1.21,0,0,0,.39-.86V10.1a1.23,1.23,0,0,0-.38-.89,1.29,1.29,0,0,0-.89-.36h0A1.26,1.26,0,0,0,6.53,10.1v7.23H5.9V10.1a1.26,1.26,0,0,0-.65-1,1.25,1.25,0,0,0-1.85,1v7.23H2.67V10.1a1.19,1.19,0,0,0-.32-.92,1.24,1.24,0,0,0-.9-.39A1.23,1.23,0,0,0,.22,10.1v8.48a1.19,1.19,0,0,0,.35.87,1.2,1.2,0,0,0,.88.32H3v8.07"/><path class="cls-3" d="M25.08,5.19a4.91,4.91,0,0,1-.28-2.35.42.42,0,0,0,.37-.41h0A.43.43,0,0,0,24.84,2c-.13-.13-.19-.41.1-.47S25.13.45,24.77.3A11.68,11.68,0,0,0,22.6.23,11.61,11.61,0,0,0,20.44.3c-.36.15-.46,1.18-.17,1.24s.23.34.1.47a.44.44,0,0,0-.33.41h0a.42.42,0,0,0,.37.41,4.78,4.78,0,0,1-.28,2.35,32.7,32.7,0,0,0-.59,7.24A4.45,4.45,0,0,0,17.36,16c-.09,2.46,0,18.17,0,18.57S17,36.4,19.77,36.4h5.67c2.77,0,2.38-1.42,2.41-1.82h0c0-.41.09-16.11,0-18.57a4.47,4.47,0,0,0-2.18-3.58A34.88,34.88,0,0,0,25.5,8"/><rect class="cls-1" x="18.89" y="16.83" width="7.43" height="14.77"/></g></g></svg>