<svg xmlns="http://www.w3.org/2000/svg" viewBox="0 0 33.01 30.54"><g id="Capa_2" data-name="Capa 2"><g id="Layer_3" data-name="Layer 3"><path d="M8.33,0a.91.91,0,0,1,.54,1c0,.5,0,1,0,1.49a.77.77,0,0,1-.46.77s-.08,0-.1,0a1.77,1.77,0,0,0,.11,1.15l1,.83a4.25,4.25,0,0,1,1.21,4.89,2.36,2.36,0,0,0,.33,2.49,4.1,4.1,0,0,1,.82,2.56V28.78a1.71,1.71,0,0,1-1.35,1.76H1.35l-.19-.07A1.61,1.61,0,0,1,0,28.87C0,27.42,0,26,0,24.51c0-.36.16-.55.44-.55s.44.19.45.55v1.3h10V16.05H7.18a.48.48,0,0,1-.51-.28c-.14-.32.1-.61.49-.62h3.69a3.14,3.14,0,0,0-.68-2.06,3,3,0,0,1-.65-2.32c.05-.32.17-.63.25-.95S10,9,10.1,8.49H1.75A3.07,3.07,0,0,0,2,9.92a3,3,0,0,1,.08,2.19,4.57,4.57,0,0,1-.58,1.06,3.29,3.29,0,0,0-.61,2h.34c1.21,0,2.42,0,3.64,0a.68.68,0,0,1,.47.23A.42.42,0,0,1,5,16c-.52,0-1,0-1.58,0H.9v6a1.83,1.83,0,0,1,0,.33.4.4,0,0,1-.43.37A.4.4,0,0,1,0,22.38a1.72,1.72,0,0,1,0-.32c0-2.25,0-4.5,0-6.74a4.43,4.43,0,0,1,.9-2.81,2.2,2.2,0,0,0,.29-2.26A4.28,4.28,0,0,1,2.5,5.13a2.93,2.93,0,0,1,.43-.36,1.13,1.13,0,0,0,.56-1.33.29.29,0,0,0-.14-.21.79.79,0,0,1-.45-.78c0-.49,0-1,0-1.46a.94.94,0,0,1,.54-1ZM.9,26.74v.37c0,.63,0,1.26,0,1.88a.7.7,0,0,0,.78.66h8.35a.75.75,0,0,0,.81-.8c0-.38,0-.76,0-1.13v-1Zm9-19.17A3.29,3.29,0,0,0,9,6c-.38-.34-.77-.66-1.17-1A.51.51,0,0,0,7.46,5H4.3a.46.46,0,0,0-.3.09c-.41.33-.83.67-1.23,1a3.11,3.11,0,0,0-.89,1.49ZM3.81.91V2.36H8V.91ZM7.36,3.3H4.41V4h3Z"/><path d="M3.63,18.85a2.21,2.21,0,0,1,.21-1.62.52.52,0,0,1,.5-.3,2.24,2.24,0,0,1,1.54.63,2.24,2.24,0,0,1,1.54-.63.51.51,0,0,1,.5.3,2.14,2.14,0,0,1,.21,1.62,2.26,2.26,0,0,1,1.3,1,.54.54,0,0,1,0,.68,2.36,2.36,0,0,1-1.3,1,2.17,2.17,0,0,1-.2,1.6.5.5,0,0,1-.52.31,2.24,2.24,0,0,1-1.53-.62,2.25,2.25,0,0,1-1.5.62.53.53,0,0,1-.56-.33,2.23,2.23,0,0,1-.19-1.59,2.33,2.33,0,0,1-1.28-.93.57.57,0,0,1,0-.74A2.35,2.35,0,0,1,3.63,18.85Zm2.93,1.3a.68.68,0,1,0-.67.69A.67.67,0,0,0,6.56,20.15Zm2,0a1,1,0,0,0-.94-.42c-.07,0-.17.11-.17.17a4.16,4.16,0,0,0,0,.61A.89.89,0,0,0,8.56,20.16Zm-5.34,0a.86.86,0,0,0,.94.44.28.28,0,0,0,.16-.16c0-.2,0-.41,0-.61A.87.87,0,0,0,3.22,20.14ZM4.8,19l.29-.19.31-.16a.84.84,0,0,0-.84-.77A.85.85,0,0,0,4.8,19ZM7,19a.85.85,0,0,0,.21-1.12c-.53.09-.8.34-.82.77ZM4.56,22.46c.52-.08.79-.33.84-.78-.1-.05-.21-.09-.31-.15l-.29-.19A.85.85,0,0,0,4.56,22.46Zm2.65,0A.84.84,0,0,0,7,21.35l-.61.35A.83.83,0,0,0,7.21,22.45Z"/><path d="M5.89,24.94H4.1c-.34,0-.55-.18-.54-.46s.2-.44.53-.44H7.72c.34,0,.55.18.54.46s-.21.43-.56.44Z"/><path d="M15.93,30.41a3.54,3.54,0,0,1-.52-.25,1.5,1.5,0,0,1-.7-1.36V8.67a1.08,1.08,0,0,1,.9-1.21c0-.3,0-.61,0-.92a.23.23,0,0,0-.15-.17,1,1,0,0,1-.74-1c0-.37,0-.73,0-1.1A1.11,1.11,0,0,1,15.51,3h6.1a1.12,1.12,0,0,1,.79,1.24c0,.36,0,.72,0,1.07a1,1,0,0,1-.76,1.07.26.26,0,0,0-.13.18c0,.3,0,.61,0,.92.94.21.93.94.9,1.69h4.79a1.9,1.9,0,0,1,1.87,1.17c.09.19.19.38.27.58a.39.39,0,1,1-.71.34,5.59,5.59,0,0,1-.3-.6A1.12,1.12,0,0,0,27.19,10h-5c-.5,0-.59-.1-.6-.59V8.56a.25.25,0,0,0-.29-.29H15.81c-.22,0-.31.1-.3.31V28.69a.79.79,0,0,0,.23.71,1,1,0,0,0,.53.2H30.49a.7.7,0,0,0,.75-.73c0-.22,0-.44,0-.7H29.7a1.32,1.32,0,0,1,0-2.63c.51,0,1,0,1.54,0v-.85h-1a4.14,4.14,0,0,1-.79-.05,1.31,1.31,0,0,1,.21-2.58c.43,0,.86,0,1.29,0h.3v-.84H29.77a1.35,1.35,0,0,1-1.35-1.32,1.32,1.32,0,0,1,1.3-1.33c.4,0,.8,0,1.2,0h.33a5.46,5.46,0,0,0-.32-2.5c-.53-1-1-2-1.43-2.93-.05-.11-.13-.23-.1-.32s.13-.32.25-.36.29,0,.43.09.1.14.14.22c.51,1.08,1,2.16,1.55,3.23a2.65,2.65,0,0,1,.28,1.24q0,.6,0,1.2a.34.34,0,0,0,.15.23,1.3,1.3,0,0,1,.8,1.23,1.28,1.28,0,0,1-.8,1.22h0c-.27.22-.07.51-.11.77a.29.29,0,0,0,.12.26,1.34,1.34,0,0,1,0,2.46.3.3,0,0,0-.14.19c0,.26,0,.53,0,.73a4.76,4.76,0,0,1,.66.53,1.3,1.3,0,0,1-.48,2c-.14.07-.2.14-.19.29a3.62,3.62,0,0,1,0,.57A1.53,1.53,0,0,1,31,30.34l-.17.07ZM18.53,5.6h2.73c.2,0,.34,0,.33-.28V4.07c0-.19-.08-.28-.27-.28H15.8c-.2,0-.29.09-.29.29V5.23c0,.33,0,.37.37.37Zm-2.1,1.85h4.25v-1H16.43ZM30.72,20.39h.88a.56.56,0,0,0,.61-.54.54.54,0,0,0-.6-.51c-.6,0-1.2,0-1.79,0a.53.53,0,1,0,0,1.05Zm0,7h0c.33,0,.66,0,1,0a.51.51,0,0,0,.52-.5.52.52,0,0,0-.53-.52q-1,0-1.92,0a.51.51,0,0,0-.53.51.52.52,0,0,0,.53.52Zm0-3.49h1a.54.54,0,0,0,.56-.53.53.53,0,0,0-.54-.51c-.63,0-1.27,0-1.9,0a.52.52,0,0,0-.54.53.53.53,0,0,0,.55.51Z"/><path d="M18.1,21c0-.19,0-.4.07-.61a.38.38,0,0,1,.45-.38.39.39,0,0,1,.33.5,2.81,2.81,0,0,0,.63,2.32,3,3,0,0,0,3.14,1.1,3,3,0,0,0,2.39-2.29,3.23,3.23,0,0,0-.47-2.51c-.4-.66-.88-1.27-1.33-1.9s-.7-.95-1-1.42c-.17-.24-.25-.24-.42,0q-1.11,1.5-2.19,3c-.2.27-.42.34-.63.2s-.23-.38,0-.64c.76-1.06,1.52-2.11,2.3-3.15a.92.92,0,0,1,1.49-.05c.89,1.19,1.79,2.38,2.59,3.63a3.86,3.86,0,0,1,.48,3.26,4,4,0,0,1-7.7-.5C18.12,21.38,18.12,21.2,18.1,21Z"/></g></g></svg>