<svg xmlns="http://www.w3.org/2000/svg" viewBox="0 0 23.88 25.5"><defs><style>.cls-1{fill:#1d1d1b;}</style></defs><g id="Capa_2" data-name="Capa 2"><g id="Layer_3" data-name="Layer 3"><path class="cls-1" d="M12.83,0a.65.65,0,0,1,.4.74c-.13,1.49-.25,3-.37,4.46s-.26,3-.38,4.56c-.14,1.72-.29,3.44-.43,5.16-.11,1.29-.23,2.58-.31,3.87a2.14,2.14,0,0,1-1.41,2c-.16.06-.13.16-.13.28,0,1.23,0,2.47,0,3.7a.68.68,0,0,1-.41.7H3.41A.78.78,0,0,1,3,24.74c0-1.22,0-2.44,0-3.66a.26.26,0,0,0-.2-.29A2,2,0,0,1,1.52,19q-.24-2.78-.46-5.55Q.79,10.29.53,7.13C.36,5,.19,2.92,0,.81A.71.71,0,0,1,.38,0ZM1.14,1.11c0,.58.09,1.13.13,1.68l.42,5.06.48,5.76c.14,1.73.28,3.47.43,5.21a1,1,0,0,0,1.14,1H9.49a1,1,0,0,0,1.15-1.09c0-.2,0-.41,0-.62.13-1.68.27-3.37.41-5.06l.48-5.72c.14-1.75.29-3.49.43-5.24,0-.33.05-.67.08-1Zm6,23.27H9.08V21H4.13v3.42H6.06V23.5c0-.38.22-.61.55-.61s.54.22.55.6Z"/><path class="cls-1" d="M14.07,25.5a.69.69,0,0,1-.41-.72c0-2.94,0-5.88,0-8.82a3.56,3.56,0,0,1,2.88-3.63l.16-.05V5.38c0-.55.17-.72.73-.72h2.72c.5,0,.69.19.69.7v6.92l0-.06a11.34,11.34,0,0,1,1.41.66,3.38,3.38,0,0,1,1.58,2.92c0,3,0,6,0,9.06a.7.7,0,0,1-.4.64Zm8.7-1.11c0-.08,0-.14,0-.21V15.92a2.49,2.49,0,0,0-2.58-2.57H17.39A2.48,2.48,0,0,0,14.76,16v8.43Zm-3-12.15V5.77H17.81v6.47Z"/><path class="cls-1" d="M6.62,13.78c.52,0,1,0,1.57,0a.5.5,0,0,1,.49.52.53.53,0,0,1-.48.54l-.28,0h-2a6.56,6.56,0,0,1-.89,0,.51.51,0,0,1-.43-.71.52.52,0,0,1,.56-.36H6.62Z"/></g></g></svg>