<svg xmlns="http://www.w3.org/2000/svg" viewBox="0 0 16.47 20.86"><defs><style>.cls-1{opacity:0.8;}.cls-2{fill:#fff;}</style></defs><g id="Capa_2" data-name="Capa 2"><g id="Layer_3" data-name="Layer 3"><g class="cls-1"><path class="cls-2" d="M.29,20.86A.55.55,0,0,1,0,20.31c0-3.82,0-7.63,0-11.44A3.64,3.64,0,0,1,2,5.49a.26.26,0,0,0,.12-.19c0-1,0-2,0-3a.25.25,0,0,0,0-.12A3.34,3.34,0,0,1,2,.64c0-.32.24-.51.51-.64H4.85a.84.84,0,0,1,.53.91c0,.24,0,.49,0,.73a.66.66,0,0,1,0,.32,1.26,1.26,0,0,0-.11.71V5.26a.24.24,0,0,0,.14.25,3.59,3.59,0,0,1,2,3.24c0,1,0,2,0,2.93,0,.3-.16.48-.42.48s-.39-.18-.4-.47V10.26H.83v6.65H6.52v-1c0-.16,0-.32,0-.48a.39.39,0,0,1,.4-.4.4.4,0,0,1,.41.4v.14c0,1.58,0,3.16,0,4.75a.55.55,0,0,1-.29.55ZM.83,9.42H6.55a9.57,9.57,0,0,0-.1-1.23A2.74,2.74,0,0,0,4.74,6.12a.48.48,0,0,1-.34-.5c0-.12,0-.24,0-.35H2.94a1.47,1.47,0,0,0,0,.21.58.58,0,0,1-.45.69A2.51,2.51,0,0,0,1.41,7,3.27,3.27,0,0,0,.83,9.42Zm5.69,8.34H.83V20H6.52ZM3,4.43H4.39v-2H3ZM2.8.82v.8H4.54V.82Z"/><path class="cls-2" d="M10.8,20.86c-.09-.1-.23-.19-.27-.3a.39.39,0,0,1,.41-.51c.41,0,.82,0,1.22,0h.22c0-.09,0-.15,0-.22V15a.29.29,0,0,0-.16-.29,6.52,6.52,0,0,1-2-9.23.61.61,0,0,1,.56-.3h4a.61.61,0,0,1,.54.28,6.53,6.53,0,0,1-1.92,9.22.37.37,0,0,0-.2.37v5h1.15a2.62,2.62,0,0,1,.28,0,.41.41,0,0,1,.23.76.18.18,0,0,1-.07.05ZM10,10h5.59a.25.25,0,0,0,0-.07,5.74,5.74,0,0,0-.79-3.75A.31.31,0,0,0,14.5,6H11.09a.32.32,0,0,0-.33.19A5.77,5.77,0,0,0,10,10Zm.21.84s0,.08,0,.12a5.7,5.7,0,0,0,2.45,3.09A.24.24,0,0,0,13,14a5.61,5.61,0,0,0,2.29-2.75c.06-.14.11-.29.16-.44Z"/><path class="cls-2" d="M3.67,12.34a1.23,1.23,0,1,1,1.21,2.09,1.24,1.24,0,0,1-.41,1.17,1.18,1.18,0,0,1-.88.29c-.71,0-1.16-.6-1.13-1.45-.81-.49-1-1.18-.63-1.83A1.23,1.23,0,0,1,3.67,12.34Zm0,2.74a.41.41,0,0,0,.41-.4.41.41,0,1,0-.82,0A.41.41,0,0,0,3.67,15.08Zm-.41-1.82a.41.41,0,0,0-.81,0,.41.41,0,0,0,.42.41A.4.4,0,0,0,3.26,13.26Zm1.63,0a.4.4,0,0,0-.39-.41.41.41,0,1,0,.39.41Z"/><path class="cls-2" d="M6.93,14a.4.4,0,1,1,.41-.39A.41.41,0,0,1,6.93,14Z"/></g></g></g></svg>