<svg xmlns="http://www.w3.org/2000/svg" viewBox="0 0 110.54 118.03"><defs><style>.cls-1{fill:#696969;}</style></defs><g id="Capa_2" data-name="Capa 2"><g id="Capa_1-2" data-name="Capa 1"><path class="cls-1" d="M59.38,0a3,3,0,0,1,1.86,3.43c-.61,6.88-1.15,13.77-1.72,20.66s-1.17,14.08-1.75,21.12l-2,23.87C55.29,75,54.73,81,54.33,87c-.29,4.5-2.24,7.74-6.52,9.4-.71.27-.61.76-.61,1.28,0,5.72,0,11.45,0,17.17a3.07,3.07,0,0,1-1.9,3.2H15.8A3.45,3.45,0,0,1,14,114.52c.06-5.65,0-11.3,0-17a1.22,1.22,0,0,0-.91-1.33A9.24,9.24,0,0,1,7,88C6.3,79.44,5.61,70.87,4.9,62.3Q3.68,47.66,2.45,33C1.65,23.26.89,13.5,0,3.74-.12,2.06.21.81,1.74,0ZM5.26,5.12c.22,2.69.42,5.26.63,7.82q1,11.72,1.93,23.42L10,63c.66,8,1.3,16.07,2,24.11.29,3.34,1.91,4.76,5.26,4.77,5.49,0,11,0,16.48,0,3.38,0,6.76,0,10.15,0s5.1-1.64,5.3-5c0-1,.15-1.91.23-2.87q1-11.72,1.93-23.42,1.1-13.26,2.2-26.52,1-12.12,2-24.23c.13-1.55.23-3.1.35-4.71ZM33.14,112.87H42V97H19.14v15.84h8.92v-2c0-.69,0-1.39,0-2.08.05-1.75,1-2.79,2.54-2.79s2.49,1,2.52,2.78C33.15,110.1,33.14,111.44,33.14,112.87Z"/><path class="cls-1" d="M65.14,118a3.14,3.14,0,0,1-1.9-3.32c0-13.6,0-27.2,0-40.8,0-8.57,5-14.84,13.33-16.85.22-.05.43-.13.73-.22V55.46q0-15.27,0-30.54c0-2.57.78-3.35,3.38-3.35,4.19,0,8.37,0,12.56,0,2.32,0,3.19.89,3.19,3.23v32l.22-.26a48.14,48.14,0,0,1,6.49,3,15.63,15.63,0,0,1,7.32,13.51c.1,14,0,28,0,42a3.14,3.14,0,0,1-1.81,2.94Zm40.26-5.13c0-.35,0-.65,0-1,0-12.75,0-25.5,0-38.25A11.53,11.53,0,0,0,93.51,61.79c-4.33,0-8.67,0-13,0-7.26,0-12.16,4.88-12.16,12.12q0,18.9,0,37.79v1.21ZM91.32,56.65V26.73H82.45V56.65Z"/><path class="cls-1" d="M30.65,63.8c2.42,0,4.84-.06,7.25,0a2.35,2.35,0,0,1,2.27,2.43A2.43,2.43,0,0,1,38,68.75a8.87,8.87,0,0,1-1.26.07c-3.11,0-6.22,0-9.33,0a40.54,40.54,0,0,1-4.13-.09,2.42,2.42,0,0,1-2-3.33,2.49,2.49,0,0,1,2.63-1.64h6.79Z"/></g></g></svg>