<svg xmlns="http://www.w3.org/2000/svg" viewBox="0 0 123.51 114.27"><defs><style>.cls-1{fill:#696969;}</style></defs><g id="Capa_2" data-name="Capa 2"><g id="Capa_1-2" data-name="Capa 1"><path class="cls-1" d="M31.15,0a3.41,3.41,0,0,1,2,3.59c-.09,1.86,0,3.72,0,5.58A2.85,2.85,0,0,1,31.47,12c-.13.07-.3.1-.39.2-.44.46-.11,3.85.42,4.3,1.22,1,2.46,2,3.67,3.08a15.92,15.92,0,0,1,4.52,18.3,8.9,8.9,0,0,0,1.22,9.32A15.25,15.25,0,0,1,44,56.82q0,25.42,0,50.84c0,3.51-1.8,5.59-5,6.61H5c-.24-.09-.47-.19-.71-.27A6.1,6.1,0,0,1,0,108c0-5.42,0-10.85,0-16.28,0-1.35.61-2.06,1.66-2.06s1.66.7,1.68,2c0,1.6,0,3.2,0,4.87H40.58V60H26.87A1.82,1.82,0,0,1,25,59c-.51-1.19.36-2.3,1.84-2.3,4.16,0,8.33,0,12.49,0h1.3A11.65,11.65,0,0,0,38,49a11.45,11.45,0,0,1-2.41-8.68,31.87,31.87,0,0,1,.94-3.54c.41-1.6.79-3.21,1.21-5H6.54a11.4,11.4,0,0,0,1,5.35,11.08,11.08,0,0,1,.3,8.16,18.64,18.64,0,0,1-2.17,4,12.33,12.33,0,0,0-2.29,7.41H4.67c4.54,0,9.08,0,13.61,0a2.56,2.56,0,0,1,1.78.83A1.59,1.59,0,0,1,18.57,60c-2,0-3.94,0-5.91,0H3.36v1.37q0,10.55,0,21.09a8.24,8.24,0,0,1,0,1.22A1.51,1.51,0,0,1,1.7,85.11,1.5,1.5,0,0,1,.07,83.74a8.3,8.3,0,0,1,0-1.22C0,74.11,0,65.71,0,57.3A16.62,16.62,0,0,1,3.38,46.8a8.28,8.28,0,0,0,1.08-8.44C1.62,31,3.35,24.25,9.34,19.2A10.92,10.92,0,0,1,11,17.86c2.08-1.11,2.37-2.93,2.07-5a1.2,1.2,0,0,0-.52-.8,3,3,0,0,1-1.69-2.9c0-1.82.08-3.65,0-5.46a3.45,3.45,0,0,1,2-3.71ZM3.36,100c0,.53,0,1,0,1.41,0,2.34,0,4.69.07,7a2.64,2.64,0,0,0,2.93,2.45q15.61,0,31.24,0a2.77,2.77,0,0,0,3-3c.05-1.41,0-2.82,0-4.24V100ZM37,28.32a12,12,0,0,0-3.51-5.72c-1.41-1.27-2.87-2.48-4.35-3.66a2.06,2.06,0,0,0-1.21-.4c-3.94,0-7.88,0-11.82,0a2,2,0,0,0-1.12.33c-1.56,1.27-3.12,2.53-4.59,3.89A11.59,11.59,0,0,0,7,28.32ZM14.27,3.4V8.84H29.75V3.4Zm13.26,9h-11v2.77h11Z"/><path class="cls-1" d="M13.58,70.53a8.24,8.24,0,0,1,.78-6,1.87,1.87,0,0,1,1.86-1.13A8.24,8.24,0,0,1,22,65.71a8.39,8.39,0,0,1,5.78-2.36,1.89,1.89,0,0,1,1.87,1.12,8.19,8.19,0,0,1,.78,6.06,8.64,8.64,0,0,1,4.88,3.65,2.07,2.07,0,0,1,0,2.56,8.73,8.73,0,0,1-4.84,3.61,8.3,8.3,0,0,1-.76,6,1.92,1.92,0,0,1-2,1.17A8.4,8.4,0,0,1,22,85.18a8.53,8.53,0,0,1-5.61,2.34,2,2,0,0,1-2.12-1.27,8.38,8.38,0,0,1-.71-5.92A8.53,8.53,0,0,1,8.8,76.84a2.13,2.13,0,0,1,0-2.75A8.71,8.71,0,0,1,13.58,70.53Zm11,4.85A2.54,2.54,0,1,0,22.05,78,2.51,2.51,0,0,0,24.54,75.38Zm7.5,0a3.61,3.61,0,0,0-3.52-1.55,1,1,0,0,0-.66.64,19.32,19.32,0,0,0,0,2.28C29.49,77.39,30.68,77,32,75.41Zm-20,0A3.21,3.21,0,0,0,15.57,77a.92.92,0,0,0,.58-.59c.07-.76,0-1.53,0-2.27C14.53,73.48,13.35,73.84,12,75.36ZM18,71c.35-.24.71-.5,1.09-.72s.78-.39,1.16-.58C20,68,18.94,67.09,17.05,66.87A3.15,3.15,0,0,0,18,71Zm8.14,0a3.13,3.13,0,0,0,.79-4.18c-2,.35-3,1.28-3.06,2.87Zm-9,13C19,83.73,20,82.8,20.19,81.12c-.37-.19-.78-.36-1.16-.58s-.74-.48-1.09-.71A3.16,3.16,0,0,0,17.07,84ZM27,84c.73-1.78.45-3.11-.9-4.14l-2.27,1.32C24,82.87,25.08,83.79,27,84Z"/><path class="cls-1" d="M22,93.29H15.33c-1.27,0-2.05-.67-2-1.7s.77-1.64,2-1.64q6.8,0,13.6,0c1.28,0,2.05.67,2,1.7s-.79,1.64-2.09,1.64Z"/><path class="cls-1" d="M59.61,113.77a16.84,16.84,0,0,1-2-.92,5.68,5.68,0,0,1-2.62-5.1q0-16.47,0-32.95V32.43c0-2.55.88-3.75,3.37-4.52,0-1.13,0-2.29,0-3.45a1,1,0,0,0-.56-.63A3.79,3.79,0,0,1,55,19.91c0-1.37,0-2.75,0-4.11a4.14,4.14,0,0,1,3-4.61H80.85a4.21,4.21,0,0,1,3,4.65c-.08,1.33,0,2.67,0,4a3.81,3.81,0,0,1-2.83,4,.93.93,0,0,0-.5.67c0,1.13,0,2.26,0,3.42,3.51.81,3.46,3.53,3.35,6.35h1.29c5.54,0,11.08,0,16.63,0a7.1,7.1,0,0,1,7,4.38c.34.72.72,1.43,1,2.17a1.49,1.49,0,1,1-2.68,1.29c-.39-.73-.75-1.49-1.09-2.25a4.2,4.2,0,0,0-4.24-2.59H83c-1.84,0-2.2-.37-2.21-2.23V32c0-.74-.35-1.09-1.11-1.09q-10.26,0-20.53,0c-.81,0-1.15.38-1.13,1.17s0,1.87,0,2.8q0,36.21,0,72.42c0,1,0,2,.87,2.65a3.71,3.71,0,0,0,2,.74q26.59.06,53.18,0a2.65,2.65,0,0,0,2.82-2.74c0-.82,0-1.65,0-2.63-2,0-3.88.05-5.78,0a4.82,4.82,0,0,1-4.67-4,4.89,4.89,0,0,1,4.61-5.8c1.89-.06,3.79,0,5.76,0V92.33c-1.23,0-2.48,0-3.74,0a15.55,15.55,0,0,1-3-.18,4.9,4.9,0,0,1,.8-9.66c1.6-.1,3.21,0,4.81-.06h1.13V79.27h-1.94c-1.17,0-2.34,0-3.51,0a5,5,0,0,1-.2-9.91c1.5-.08,3,0,4.51,0h1.22c-.22-3.2.47-6.33-1.21-9.35-2-3.55-3.58-7.3-5.33-11-.19-.38-.49-.86-.39-1.2a2.15,2.15,0,0,1,1-1.34,2.44,2.44,0,0,1,1.6.35c.25.11.37.53.51.83,1.94,4,3.86,8.06,5.82,12.07a9.69,9.69,0,0,1,1,4.63c0,1.51,0,3,0,4.51a1.18,1.18,0,0,0,.55.86,4.91,4.91,0,0,1,3,4.59,4.8,4.8,0,0,1-3,4.57.32.32,0,0,0-.09,0c-1,.81-.27,1.91-.43,2.87a1.15,1.15,0,0,0,.47,1,4.9,4.9,0,0,1,3.08,4.64,4.81,4.81,0,0,1-3,4.56,1,1,0,0,0-.52.69c-.06,1,0,2,0,2.74a16.79,16.79,0,0,1,2.48,2,4.85,4.85,0,0,1-1.78,7.56,1,1,0,0,0-.71,1.11,18.39,18.39,0,0,1,0,2.1,5.69,5.69,0,0,1-3.95,5.36c-.21.08-.41.18-.62.27ZM69.33,21H79.54c.74,0,1.25-.18,1.25-1,0-1.57,0-3.14,0-4.71,0-.69-.32-1-1.05-1H59.12c-.77,0-1.1.32-1.1,1.07,0,1.44,0,2.87,0,4.31,0,1.22.16,1.38,1.39,1.38C62.72,21,66,21,69.33,21Zm-7.87,6.91h15.9V24H61.46Zm53.47,48.42h3.3a2.06,2.06,0,0,0,2.26-2,2,2,0,0,0-2.24-1.92q-3.34,0-6.69,0a2,2,0,1,0,0,3.93C112.67,76.3,113.8,76.27,114.93,76.28Zm-.08,26.11h0c1.23,0,2.47,0,3.7,0a1.93,1.93,0,1,0,0-3.85c-2.4,0-4.79,0-7.19,0a1.93,1.93,0,1,0,0,3.85C112.52,102.42,113.69,102.39,114.85,102.39Zm0-13.06c1.2,0,2.4,0,3.6,0a2,2,0,0,0,2.08-2,1.92,1.92,0,0,0-2-1.91q-3.54-.06-7.09,0a1.93,1.93,0,0,0-2,2,2,2,0,0,0,2.06,1.88C112.54,89.35,113.68,89.33,114.81,89.33Z"/><path class="cls-1" d="M67.71,78.57c.08-.71.12-1.51.25-2.3a1.49,1.49,0,1,1,2.93.46,10.5,10.5,0,0,0,2.37,8.7c3.1,3.6,7,5.14,11.73,4.12A11.23,11.23,0,0,0,94,81c.88-3.37-.08-6.52-1.79-9.38-1.48-2.49-3.28-4.79-5-7.14-1.28-1.79-2.61-3.55-3.93-5.32-.65-.86-.93-.87-1.58,0q-4.11,5.61-8.19,11.24c-.72,1-1.57,1.28-2.35.72s-.84-1.41-.15-2.37c2.85-4,5.7-7.9,8.62-11.8a3.46,3.46,0,0,1,5.56-.19c3.33,4.46,6.71,8.91,9.69,13.6a14.33,14.33,0,0,1,1.79,12.2A15,15,0,0,1,81.93,92.86c-7.19-.47-13-5.49-14.05-12.2C67.78,80,67.77,79.33,67.71,78.57Z"/></g></g></svg>