<svg xmlns="http://www.w3.org/2000/svg" viewBox="0 0 95.14 71.94"><defs><style>.cls-1{fill:#696969;}</style></defs><g id="Capa_2" data-name="Capa 2"><g id="Capa_1-2" data-name="Capa 1"><rect class="cls-1" x="30.43" y="45.14" width="2.02" height="2.87" transform="translate(-14.44 14.12) rotate(-20.7)"/><rect class="cls-1" x="28.39" y="39.68" width="2.02" height="2.87" transform="translate(-12.64 13.05) rotate(-20.7)"/><rect class="cls-1" x="24.3" y="28.91" width="2.02" height="2.87" transform="translate(-9.09 10.91) rotate(-20.7)"/><rect class="cls-1" x="26.29" y="34.34" width="2.02" height="2.87" transform="matrix(0.94, -0.35, 0.35, 0.94, -10.89, 11.96)"/><path class="cls-1" d="M67.57,24.79l-2.23-6.06L55.12,22.56l2.24,6.07Zm-3.4-3.51L65,23.52,58.53,26l-.85-2.24Z"/><rect class="cls-1" x="40.48" y="30.3" width="14.68" height="2.02" transform="translate(-7.98 18.93) rotate(-20.7)"/><rect class="cls-1" x="38.92" y="26.09" width="14.68" height="2.02" transform="translate(-6.59 18.11) rotate(-20.7)"/><rect class="cls-1" x="42.2" y="35.32" width="10.11" height="2.02" transform="translate(-9.79 19.05) rotate(-20.7)"/><rect class="cls-1" x="23.41" y="32.71" width="2.02" height="14.69" transform="translate(-12.58 11.22) rotate(-20.71)"/><rect class="cls-1" x="35.26" y="60.55" width="2.02" height="2.87" transform="matrix(1, 0, 0, 1, -0.12, 0.07)"/><path class="cls-1" d="M66.83,47.89v6.49h11V47.89Zm2,4.36V49.8h6.92v2.45Z"/><rect class="cls-1" x="49.7" y="52.46" width="14.69" height="2.02"/><rect class="cls-1" x="49.7" y="56.93" width="10.11" height="2.02"/><path class="cls-1" d="M89.81,34.37,76.83,0,23.94,20l.32.95a2.13,2.13,0,0,1-.1,1.81,3,3,0,0,1-1.28,1.28,2.37,2.37,0,0,1-3-1.38l-.32-1L0,29.05,13,63.53v8.41H33.84V71a2.34,2.34,0,0,1,4.68,0v1l56.62-.11L95,34.37ZM75.66,2.66,87.47,34l-3,1.17L72.68,3.72ZM13.09,26.28l1.17,3.09L10,27.46ZM7.34,28.41l8,3.62.54,1.49L5.75,29ZM2.55,30.22,3.09,30l13.83,6.28.53,1.49L3,31.18Zm1.39,3.62,14.47,6.49.53,1.49L4.58,35.44ZM5.53,38.1,20,44.59l.53,1.49L6.07,39.59Zm1.6,4.15L21.6,48.74l.53,1.49L7.66,43.74Zm1.6,4.15L23.2,52.89l.53,1.49L9.26,47.89Zm1.59,4.15L24.79,57l.11.42-1.06.43-13-5.75ZM24.05,60l1.17-.43,1.06,1.07v1.59Zm2.23,5v1.6l-5.42-5.43L22,60.76ZM12.45,56.29l-.53-1.49L21.18,59l-1.49.54Zm1,2.66,3.51,1.6-2.55,1ZM15,70V67.25L17.77,70Zm5.64,0L15,64.49v-1l.43-.21,6.7,6.7Zm4.47,0-7.55-7.45,1.17-.42,7.55,7.55v.43ZM15,25.54l3.52-1.28a4.43,4.43,0,0,0,3.61,1.92h.54l.21.64,1.91-.75-.21-.64a4.1,4.1,0,0,0,1.49-1.81,4.43,4.43,0,0,0,.32-2.34L70.77,4.47,82.58,35.76,38.2,52.57a4.44,4.44,0,0,0-3.61-1.92h-.54l-.1-.42L32,51l.11.43a4.37,4.37,0,0,0-1.92,4.15l-3.4,1.28ZM40.54,69.92a4.52,4.52,0,0,0-2.66-3.09.93.93,0,0,0-.53-.11V66.3h-2v.42a4.25,4.25,0,0,0-3.19,3.2H28.41V58.42l2.66-1.06v3.4h2V53.21a4.3,4.3,0,0,1,.74-.53,2.37,2.37,0,0,1,3,1.38l.21.64H35.22v2.87h2V55l13.3-5H64.38V48H56l30.65-11.6H88l.1,33.42ZM90,69.81l-.11-33.42h3.19l.11,33.42Z"/></g></g></svg>